<?xml version="1.0" encoding="UTF-8" standalone="no"?>
<svg width="357.188mm" height="190.5mm"
 xmlns="http://www.w3.org/2000/svg" xmlns:xlink="http://www.w3.org/1999/xlink"  version="1.2" baseProfile="tiny">
<desc>Created by EvoPdf</desc>
<defs>
</defs>
<g fill="none" stroke="black" stroke-width="1" fill-rule="evenodd" stroke-linecap="square" stroke-linejoin="bevel" >

<g fill="#000000" fill-opacity="1" stroke="#000000" stroke-opacity="1" stroke-width="1" stroke-linecap="square" stroke-linejoin="miter" stroke-miterlimit="2" transform="matrix(1,0,0,1,0,0)"
>
</g>

<g fill="#000000" fill-opacity="1" stroke="#000000" stroke-opacity="1" stroke-width="1" stroke-linecap="square" stroke-linejoin="miter" stroke-miterlimit="2" transform="matrix(1,0,0,1,0,0)"
>
</g>

<g fill="#000000" fill-opacity="1" stroke="#000000" stroke-opacity="1" stroke-width="1" stroke-linecap="square" stroke-linejoin="miter" stroke-miterlimit="2" transform="matrix(1,0,0,1,0,0)"
>
</g>

<g fill="#20b9e4" fill-opacity="1" stroke="none" transform="matrix(1,0,0,1,0,0)"
>
<path vector-effect="none" fill-rule="evenodd" d="M0,0 L1350,0 L1350,720 L0,720 L0,0"/>
</g>

<g fill="#1b9fd6" fill-opacity="1" stroke="none" transform="matrix(1,0,0,1,0,0)"
>
<path vector-effect="none" fill-rule="evenodd" d="M1168,262 L1169,262 C1296.58,262 1400,365.422 1400,493 L1400,494 C1400,621.578 1296.58,725 1169,725 L1168,725 C1040.42,725 937,621.578 937,494 L937,493 C937,365.422 1040.42,262 1168,262 "/>
</g>

<g fill="#1b9fd6" fill-opacity="1" stroke="none" transform="matrix(1,0,0,1,0,0)"
>
<path vector-effect="none" fill-rule="evenodd" d="M931,360 L932,360 C1059.58,360 1163,463.422 1163,591 L1163,592 C1163,719.578 1059.58,823 932,823 L931,823 C803.422,823 700,719.578 700,592 L700,591 C700,463.422 803.422,360 931,360 "/>
</g>

<g fill="#000000" fill-opacity="1" stroke="#000000" stroke-opacity="1" stroke-width="1" stroke-linecap="square" stroke-linejoin="miter" stroke-miterlimit="2" transform="matrix(1,0,0,1,0,0)"
>
</g>

<g fill="#127cac" fill-opacity="1" stroke="none" transform="matrix(0.988415,0.151778,-0.151778,0.988415,349.848,396.669)"
>
<path vector-effect="none" fill-rule="evenodd" d="M202,0 C313.562,0 404,89.9907 404,201 C404,312.009 313.562,402 202,402 C90.4384,402 0,312.009 0,201 C0,89.9907 90.4384,0 202,0 "/>
</g>

<g fill="#000000" fill-opacity="1" stroke="#000000" stroke-opacity="1" stroke-width="1" stroke-linecap="square" stroke-linejoin="miter" stroke-miterlimit="2" transform="matrix(1,0,0,1,0,0)"
>
</g>

<g fill="#fec32d" fill-opacity="1" stroke="none" transform="matrix(0.988415,0.151778,-0.151778,0.988415,-41.523,344.612)"
>
<path vector-effect="none" fill-rule="evenodd" d="M316,0 L317,0 C491.522,0 633,141.03 633,315 C633,488.97 491.522,630 317,630 L316,630 C141.478,630 0,488.97 0,315 C0,141.03 141.478,0 316,0 "/>
</g>

<g fill="#000000" fill-opacity="1" stroke="#000000" stroke-opacity="1" stroke-width="1" stroke-linecap="square" stroke-linejoin="miter" stroke-miterlimit="2" transform="matrix(1,0,0,1,0,0)"
>
</g>

<g fill="#1172a9" fill-opacity="1" stroke="none" transform="matrix(0.988415,0.151778,-0.151778,0.988415,660.848,380.669)"
>
<path vector-effect="none" fill-rule="evenodd" d="M202,0 C313.562,0 404,89.9907 404,201 C404,312.009 313.562,402 202,402 C90.4384,402 0,312.009 0,201 C0,89.9907 90.4384,0 202,0 "/>
</g>

<g fill="#000000" fill-opacity="1" stroke="#000000" stroke-opacity="1" stroke-width="1" stroke-linecap="square" stroke-linejoin="miter" stroke-miterlimit="2" transform="matrix(1,0,0,1,0,0)"
>
</g>

<g fill="#1172a9" fill-opacity="1" stroke="none" transform="matrix(0.988415,0.151778,-0.151778,0.988415,927.995,529.55)"
>
<path vector-effect="none" fill-rule="evenodd" d="M153,0 C237.5,0 306,68.5004 306,153 C306,237.5 237.5,306 153,306 C68.5004,306 0,237.5 0,153 C0,68.5004 68.5004,0 153,0 "/>
</g>

<g fill="#000000" fill-opacity="1" stroke="#000000" stroke-opacity="1" stroke-width="1" stroke-linecap="square" stroke-linejoin="miter" stroke-miterlimit="2" transform="matrix(1,0,0,1,0,0)"
>
</g>

<g fill="#000000" fill-opacity="1" stroke="#000000" stroke-opacity="1" stroke-width="1" stroke-linecap="square" stroke-linejoin="miter" stroke-miterlimit="2" transform="matrix(1,0,0,1,0,0)"
>
</g>

<g fill="#000000" fill-opacity="1" stroke="#000000" stroke-opacity="1" stroke-width="1" stroke-linecap="square" stroke-linejoin="miter" stroke-miterlimit="2" transform="matrix(1,0,0,1,0,0)"
>
</g>

<g fill="#000000" fill-opacity="1" stroke="#000000" stroke-opacity="1" stroke-width="1" stroke-linecap="square" stroke-linejoin="miter" stroke-miterlimit="2" transform="matrix(1,0,0,1,0,0)"
>
</g>
</g>
</svg>
