<svg width="21" height="31" viewBox="0 0 21 31" fill="none" xmlns="http://www.w3.org/2000/svg">
<path d="M17.5084 13.0878V0H20.9853V30.5746H17.5084V27.8743C15.9186 29.7651 13.5662 31 10.4072 31C4.7457 31 0.338379 26.5685 0.338379 20.4707C0.338379 14.3729 4.75453 9.93843 10.4072 9.93843C13.5544 9.93843 15.9097 11.1734 17.5084 13.0878ZM3.87719 20.4736C3.87719 24.4945 6.67703 27.7473 10.8105 27.7473C14.8793 27.7473 17.7204 24.6216 17.7204 20.4736C17.7204 16.3257 14.8793 13.2059 10.8105 13.2059C6.61226 13.2059 3.87719 16.4557 3.87719 20.4707V20.4736Z" fill="white"/>
</svg>
