<svg width="20" height="22" viewBox="0 0 20 22" fill="none" xmlns="http://www.w3.org/2000/svg">
<path d="M19.4835 11.4057C19.4835 11.8518 19.4423 12.3216 19.4217 12.7027H3.58541C4.07118 16.8949 6.97701 18.9571 10.4304 18.9571C12.7228 18.9387 14.9305 18.0852 16.6425 16.5552L18.4884 18.9364C15.986 21.2762 13.1891 22 10.2185 22C4.24195 22 0.00244141 17.7665 0.00244141 11.4707C0.00244141 5.2666 4.22134 0.938477 10.0124 0.938477C15.4972 0.938477 19.4423 5.21638 19.4835 11.4057ZM3.64134 9.89607H15.9595C15.5355 6.3213 13.2244 4.02577 9.95939 4.02577C6.38231 4.02577 4.15656 6.44834 3.64134 9.89607Z" fill="white"/>
</svg>
