<svg width="157" height="31" viewBox="0 0 157 31" fill="none" xmlns="http://www.w3.org/2000/svg">
<g clip-path="url(#clip0_209_4874)">
<path d="M43.1254 12.1751C41.2795 10.3243 38.8302 9.20394 36.2273 9.01982C35.5797 6.59076 34.158 4.44096 32.1792 2.89841C29.814 1.00661 26.8749 -0.0161073 23.8503 0.000191848C21.3397 -0.00575692 18.8826 0.728793 16.7845 2.11255C15.0668 3.23911 13.657 4.77872 12.6834 6.59135C12.4743 6.59135 12.2682 6.57362 12.0622 6.57362C10.4429 6.56883 8.83987 6.89659 7.3516 7.53674C5.91848 8.15278 4.61853 9.04283 3.52427 10.1572C1.88132 11.8249 0.750196 13.9309 0.265413 16.2249C-0.219369 18.5189 -0.0374185 20.9043 0.789633 23.0976C1.61669 25.2908 3.05404 27.1995 4.93077 28.5968C6.8075 29.9941 9.04465 30.8211 11.3762 30.9795H11.594C11.7442 30.9795 11.8885 30.9795 12.0504 30.9795H12.4891H34.7435H35.1292C35.2168 30.9794 35.3043 30.9735 35.3912 30.9618C38.2562 30.8355 40.9773 29.6666 43.0459 27.6736C44.0645 26.7035 44.8766 25.5363 45.4333 24.2425C45.9899 22.9487 46.2794 21.5551 46.2844 20.1459C46.2814 17.0438 45.1597 14.1988 43.1254 12.1751ZM23.9681 2.62661C29.4294 2.62661 33.8868 6.94292 33.9074 12.2489C33.9047 12.5095 33.8202 12.7626 33.6658 12.9721C33.5115 13.1816 33.2952 13.3369 33.0477 13.4159C33.0104 13.4339 32.9721 13.4497 32.9329 13.4632C31.5554 13.904 30.1154 14.1155 28.6698 14.0895C26.9812 14.0781 25.3003 13.8588 23.6649 13.4366C23.5017 13.3963 23.3484 13.3232 23.2143 13.2216C23.0802 13.12 22.968 12.9921 22.8847 12.8457C22.8035 12.7082 22.7509 12.5557 22.7302 12.3972C22.7094 12.2388 22.7209 12.0778 22.764 11.924C22.8529 11.6053 23.0626 11.3342 23.3481 11.1685C23.6336 11.0029 23.9724 10.9559 24.2919 11.0376C27.236 11.7762 29.4589 11.6669 30.8161 11.4453H30.8749H30.9162H30.9721H31.0428H31.0722C31.1367 11.4267 31.1936 11.3881 31.2348 11.335C31.276 11.282 31.2995 11.2172 31.3018 11.1499V11.1322C31.3033 11.1234 31.3033 11.1144 31.3018 11.1056V11.0642C30.6689 7.62537 27.5952 5.1319 23.9916 5.1319C19.8699 5.1319 16.5254 8.34623 16.5254 12.2962C16.5254 16.2462 19.8523 19.4073 23.9681 19.4073C24.7846 19.4102 25.5964 19.2836 26.3734 19.0321C27.2968 18.735 28.1538 18.2603 28.8965 17.6347C29.1493 17.4234 29.473 17.3169 29.8014 17.3373C30.1298 17.3576 30.438 17.5031 30.663 17.744C30.8786 17.9788 30.9926 18.2899 30.9799 18.6089C30.9672 18.928 30.8289 19.2289 30.5953 19.4457L30.5482 19.49C29.5696 20.3143 28.4435 20.944 27.2302 21.3454L20.126 24.1018C20.0843 24.1166 20.0407 24.1255 19.9965 24.1284C19.887 24.1576 19.7742 24.1725 19.6609 24.1727C19.4981 24.1762 19.3362 24.1475 19.1845 24.0883C19.0328 24.029 18.8942 23.9403 18.7766 23.8273C18.659 23.7142 18.5648 23.5791 18.4993 23.4295C18.4338 23.2799 18.3984 23.1188 18.3949 22.9555C18.3964 22.7142 18.4698 22.4789 18.6057 22.2799C18.7416 22.0809 18.9338 21.9272 19.1574 21.8388H19.181L20.5647 21.3011C18.8947 20.7141 17.4089 19.695 16.2575 18.3467C15.5464 17.5124 14.9846 16.5608 14.597 15.5342C14.2021 14.4824 14.0025 13.367 14.0082 12.243C13.9905 6.93996 18.4656 2.62661 23.9681 2.62661ZM35.141 28.4299H12.4331C10.1994 28.4181 8.0344 27.6533 6.28583 26.2585C4.57806 24.8878 3.37765 22.9821 2.87657 20.8461C2.51779 19.4238 2.51779 17.9343 2.87657 16.5121C3.35509 14.6616 4.34126 12.983 5.72302 11.667C7.10478 10.3509 8.82672 9.45015 10.6931 9.06709C11.069 8.99286 11.4498 8.94645 11.8325 8.92824C12.0085 8.90724 12.187 8.93367 12.3494 9.00481C12.5119 9.07594 12.6526 9.18922 12.757 9.33298C12.9201 9.55204 13.0213 9.81123 13.0498 10.0832C13.0783 10.3552 13.033 10.6298 12.9189 10.8781C12.9088 10.9016 12.897 10.9243 12.8836 10.9461C12.815 11.0654 12.7191 11.1667 12.6039 11.2415C12.4452 11.3429 12.2663 11.4085 12.0798 11.4335L11.7148 11.4985C11.5057 11.534 11.3055 11.5694 11.1259 11.6078C7.9463 12.246 5.92077 14.9078 5.382 17.1118C5.1304 18.0956 5.12332 19.1263 5.36139 20.1134C5.36139 20.143 5.382 20.1784 5.39083 20.2198C5.77422 21.8214 6.68449 23.2467 7.9746 24.2652C9.26471 25.2837 10.8593 25.8361 12.5008 25.833H35.1498C36.7063 25.8252 38.1965 25.1993 39.2943 24.092C40.3922 22.9848 41.0086 21.4863 41.0085 19.9243C41.0085 16.7159 38.877 14.2431 35.9388 14.0452C35.8649 14.0427 35.7911 14.0358 35.718 14.0245C34.6876 13.8088 34.4874 12.5473 35.1115 11.8708C35.4059 11.5606 35.5914 11.4365 36.1949 11.4749C38.0939 11.599 39.5807 12.3612 41.1734 13.9861C42.3348 15.1798 43.1202 16.6903 43.4318 18.329C43.7434 19.9677 43.5673 21.6622 42.9256 23.2012C42.2839 24.7402 41.2049 26.0555 39.8232 26.9833C38.4415 27.911 36.8182 28.41 35.1557 28.4181L35.141 28.4299Z" fill="white"/>
<path d="M75.4835 20.4057C75.4835 20.8518 75.4423 21.3216 75.4217 21.7027H59.5854C60.0712 25.8949 62.977 27.9571 66.4304 27.9571C68.7228 27.9387 70.9305 27.0852 72.6425 25.5552L74.4884 27.9364C71.986 30.2762 69.1891 31 66.2185 31C60.2419 31 56.0024 26.7665 56.0024 20.4707C56.0024 14.2666 60.2213 9.93848 66.0124 9.93848C71.4972 9.93848 75.4423 14.2164 75.4835 20.4057ZM59.6413 18.8961H71.9595C71.5355 15.3213 69.2244 13.0258 65.9594 13.0258C62.3823 13.0258 60.1566 15.4483 59.6413 18.8961Z" fill="white"/>
<path d="M94.5084 13.0878V0H97.9853V30.5746H94.5084V27.8743C92.9186 29.7651 90.5662 31 87.4072 31C81.7457 31 77.3384 26.5685 77.3384 20.4707C77.3384 14.3729 81.7545 9.93843 87.4072 9.93843C90.5544 9.93843 92.9097 11.1734 94.5084 13.0878ZM80.8772 20.4736C80.8772 24.4945 83.677 27.7473 87.8105 27.7473C91.8793 27.7473 94.7204 24.6216 94.7204 20.4736C94.7204 16.3257 91.8793 13.2059 87.8105 13.2059C83.6123 13.2059 80.8772 16.4557 80.8772 20.4707V20.4736Z" fill="white"/>
<path d="M120.837 30.5746H117.36V27.8743C115.771 29.7651 113.415 31 110.259 31C104.598 31 100.188 26.5685 100.188 20.4707C100.188 14.373 104.604 9.93848 110.259 9.93848C113.415 9.93848 115.771 11.1734 117.36 13.0878V10.3639H120.837V30.5746ZM103.729 20.4707C103.729 24.4916 106.526 27.7443 110.66 27.7443C114.731 27.7443 117.572 24.6186 117.572 20.4707C117.572 16.3228 114.731 13.206 110.66 13.206C106.453 13.206 103.729 16.4558 103.729 20.4707Z" fill="white"/>
<path d="M137.56 10.6696L136.712 14.0937C135.631 13.5696 134.445 13.3007 133.244 13.3078C130.171 13.3078 128.01 15.6713 128.01 19.3908V30.6439H124.565V10.4332H127.977V13.0921C128.633 12.1341 129.512 11.3517 130.539 10.8135C131.565 10.2753 132.707 9.99768 133.865 10.0048C135.13 9.96327 136.389 10.1898 137.56 10.6696Z" fill="white"/>
<path d="M157 30.5746H153.523V27.8743C151.933 29.7651 149.581 31 146.422 31C140.76 31 136.35 26.5685 136.35 20.4707C136.35 14.373 140.766 9.93848 146.422 9.93848C149.581 9.93848 151.933 11.1734 153.523 13.0878V10.3639H157V30.5746ZM139.892 20.4707C139.892 24.4916 142.689 27.7443 146.825 27.7443C150.894 27.7443 153.735 24.6186 153.735 20.4707C153.735 16.3228 150.909 13.206 146.825 13.206C142.627 13.206 139.892 16.4558 139.892 20.4707Z" fill="white"/>
</g>
<defs>
<clipPath id="clip0_209_4874">
<rect width="157" height="31" fill="white"/>
</clipPath>
</defs>
</svg>
