<svg width="388" height="285" viewBox="0 0 388 285" fill="none" xmlns="http://www.w3.org/2000/svg">
<path d="M317.565 77.4093C315.936 77.4093 314.318 77.4689 312.718 77.5762C310.765 66.3086 305.943 55.7311 298.716 46.8586C291.488 37.9862 282.098 31.1164 271.445 26.9084C260.793 22.7004 249.236 21.2954 237.883 22.8282C226.53 24.361 215.762 28.7802 206.613 35.6617C198.949 22.1533 187.022 11.5566 172.691 5.52454C158.361 -0.507525 142.433 -1.63569 127.393 2.31606C112.352 6.26781 99.0452 15.0772 89.5474 27.3701C80.0495 39.6629 74.8949 54.7478 74.8877 70.2717C74.8892 72.7053 75.0147 75.1374 75.2637 77.5583C73.67 77.4511 72.0583 77.3915 70.4348 77.3915C51.7543 77.3915 33.839 84.7985 20.6299 97.9831C7.42079 111.168 0 129.05 0 147.696C0 166.342 7.42079 184.224 20.6299 197.408C33.839 210.593 51.7543 218 70.4348 218H317.565C336.246 218 354.161 210.593 367.37 197.408C380.579 184.224 388 166.342 388 147.696C388 129.05 380.579 111.168 367.37 97.9831C354.161 84.7985 336.246 77.3915 317.565 77.3915V77.4093Z" fill="#8AD6FF"/>
<path d="M250 201H234.385V149.425C234.385 138.596 230.077 128.211 222.41 120.554C214.742 112.897 204.343 108.595 193.5 108.595C182.657 108.595 172.258 112.897 164.59 120.554C156.923 128.211 152.615 138.596 152.615 149.425V201H137V149.425C137 134.46 142.953 120.108 153.548 109.527C164.144 98.9448 178.515 93 193.5 93C208.485 93 222.856 98.9448 233.452 109.527C244.047 120.108 250 134.46 250 149.425V201Z" fill="#325B71"/>
<path d="M267.973 176H120.027C116.698 176 114 178.719 114 182.072V278.928C114 282.281 116.698 285 120.027 285H267.973C271.302 285 274 282.281 274 278.928V182.072C274 178.719 271.302 176 267.973 176Z" fill="#FEC32D"/>
<path d="M207 214.301C207.003 212.032 206.437 209.801 205.356 207.819C204.276 205.837 202.716 204.171 200.827 202.979C198.937 201.788 196.781 201.111 194.562 201.012C192.344 200.914 190.138 201.398 188.155 202.419C186.172 203.439 184.477 204.961 183.233 206.84C181.989 208.719 181.236 210.893 181.047 213.153C180.858 215.414 181.239 217.686 182.153 219.754C183.068 221.821 184.485 223.615 186.27 224.964L182.133 255H205.867L201.73 224.964C203.364 223.733 204.692 222.126 205.608 220.274C206.523 218.422 207 216.376 207 214.301Z" fill="#856922"/>
</svg>
