<svg width="257" height="490" viewBox="0 0 257 490" fill="none" xmlns="http://www.w3.org/2000/svg">
<g clip-path="url(#clip0_206_1679)">
<path d="M252.607 475.242C252.607 483.391 245.852 490 237.523 490H15.0834C6.75444 490 0 483.391 0 475.242V21.3732C0 13.2243 6.75444 6.59204 15.0834 6.59204H237.523C245.852 6.59204 252.607 13.2017 252.607 21.3505V475.242Z" fill="#194258"/>
<path d="M18.4465 11.9158H233.657C241.719 11.9158 248.255 18.4546 248.255 26.5199V475.396C248.255 483.461 241.719 490 233.657 490H18.4465C10.3847 490 3.84863 483.461 3.84863 475.396V26.5199C3.84863 18.4546 10.3847 11.9158 18.4465 11.9158Z" fill="#1D516D"/>
<path d="M240.489 49.5537H11.5918V448.329H240.489V49.5537Z" fill="#37A2DC"/>
<path d="M136.095 33.5599C136.095 36.5217 133.704 38.914 130.743 38.914H104.599C101.639 38.914 99.2476 36.5217 99.2476 33.5599C99.2476 30.5981 101.639 28.2058 104.599 28.2058H130.743C133.704 28.2058 136.095 30.5981 136.095 33.5599Z" fill="#236182"/>
<path d="M152.856 33.5599C152.856 36.5217 150.442 38.914 147.505 38.914C144.567 38.914 142.153 36.5217 142.153 33.5599C142.153 30.5981 144.544 28.2058 147.505 28.2058C150.465 28.2058 152.856 30.5981 152.856 33.5599Z" fill="#236182"/>
<path d="M142.267 454.322C146.867 454.322 150.579 460.997 150.579 469.222C150.579 477.447 146.867 484.122 142.267 484.122H109.86C105.259 484.122 101.547 477.447 101.547 469.222C101.547 460.997 105.259 454.322 109.86 454.322H142.267Z" fill="#236182"/>
<g filter="url(#filter0_d_206_1679)">
<path d="M232.085 58.0291H20.0405V439.877H232.085V58.0291Z" fill="white"/>
</g>
<path d="M232.085 58.0291H20.0405V91.4521H232.085V58.0291Z" fill="#093B59"/>
<path d="M223.139 74.2531C223.139 79.4704 218.926 83.6854 213.71 83.6854C208.495 83.6854 204.282 79.4704 204.282 74.2531C204.282 69.0357 208.495 64.8208 213.71 64.8208C218.926 64.8208 223.139 69.0357 223.139 74.2531Z" fill="#145E8B"/>
<path d="M216.363 148.319H32.9487V158.206H216.363V148.319Z" fill="#E6EDEC"/>
<path d="M216.363 164.798H32.9487V173.588H216.363V164.798Z" fill="#E6EDEC"/>
<path d="M143.876 180.179H32.9487V190.067H143.876V180.179Z" fill="#E6EDEC"/>
<path d="M217.26 203.204H34.8438V240.25H217.26V203.204Z" fill="#093B59"/>
<path d="M215.894 204.548V338.719H36.1874V204.548H215.894ZM217.237 203.204H34.8438V340.063H217.26V203.204H217.237Z" fill="#454F56"/>
<path d="M34.8438 256.198H217.26" stroke="#454F56" stroke-width="0.59" stroke-miterlimit="10"/>
<path d="M34.8438 272.739H217.26" stroke="#454F56" stroke-width="0.59" stroke-miterlimit="10"/>
<path d="M34.8438 289.257H217.26" stroke="#454F56" stroke-width="0.59" stroke-miterlimit="10"/>
<path d="M34.8438 305.774H217.26" stroke="#454F56" stroke-width="0.59" stroke-miterlimit="10"/>
<path d="M34.8438 322.315H217.26" stroke="#454F56" stroke-width="0.59" stroke-miterlimit="10"/>
<path d="M64.7681 340.063V203.204" stroke="#454F56" stroke-width="0.59" stroke-miterlimit="10"/>
<path d="M123.524 340.063V203.204" stroke="#454F56" stroke-width="0.59" stroke-miterlimit="10"/>
<path d="M171.372 340.063V203.204" stroke="#454F56" stroke-width="0.59" stroke-miterlimit="10"/>
<path d="M179.274 280.029C181.733 286.044 178.955 292.879 173.079 295.294L109.609 321.313C103.711 323.728 96.947 320.811 94.4875 314.797L79.6163 278.48C77.1568 272.465 79.9352 265.63 85.8107 263.215L149.281 237.197C155.179 234.782 161.943 237.698 164.402 243.713L179.274 280.029V280.029Z" stroke="#E30613" stroke-width="2.07" stroke-miterlimit="10"/>
<path d="M105.988 315.64L87.0635 269.412L96.6512 265.494C98.1087 264.901 99.4068 264.651 100.545 264.742C101.684 264.856 102.777 265.38 103.825 266.314C104.872 267.271 105.92 268.683 106.945 270.552C107.97 272.443 109.108 274.858 110.315 277.842C111.522 280.781 112.41 283.287 113.025 285.406C113.64 287.502 113.914 289.302 113.868 290.76C113.822 292.219 113.435 293.449 112.684 294.406C111.932 295.385 110.839 296.16 109.382 296.752L105.237 298.461L111.363 313.43L105.988 315.64ZM106.33 291.74C106.808 291.535 107.173 291.193 107.378 290.738C107.582 290.259 107.651 289.598 107.582 288.687C107.491 287.799 107.241 286.637 106.808 285.224C106.375 283.811 105.715 282.034 104.85 279.916C104.007 277.842 103.256 276.179 102.595 274.926C101.935 273.673 101.343 272.762 100.819 272.169C100.295 271.577 99.7939 271.235 99.3157 271.144C98.8602 271.053 98.382 271.098 97.8809 271.303L94.6471 272.625L103.028 293.084L106.33 291.74Z" fill="#E30613"/>
<path d="M135.161 303.679L128.967 291.512L124.025 293.54L128.147 306.549L122.704 308.782L108.357 260.664L117.512 256.905L140.718 301.377L135.161 303.656V303.679ZM117.99 269.572C117.535 268.661 117.079 267.795 116.624 266.929C116.168 266.063 115.713 265.175 115.257 264.286L114.825 264.469C115.121 265.448 115.417 266.382 115.713 267.316C116.009 268.251 116.282 269.185 116.601 270.164L122.112 288.163L126.576 286.341L118.013 269.595L117.99 269.572Z" fill="#E30613"/>
<path d="M143.77 300.147L124.822 253.92L130.379 251.642L149.327 297.869L143.77 300.147Z" fill="#E30613"/>
<path d="M153.426 296.183L134.501 249.956L143.474 246.287C145.546 245.444 147.231 245.057 148.507 245.148C149.782 245.239 151.012 245.855 152.196 246.994C152.765 247.563 153.312 248.201 153.836 248.93C154.36 249.637 154.974 250.662 155.658 252.006C156.341 253.35 157.161 255.105 158.094 257.292C159.028 259.479 160.212 262.327 161.647 265.813C163.127 269.435 164.312 272.374 165.154 274.653C166.02 276.908 166.657 278.754 167.09 280.166C167.523 281.579 167.819 282.718 167.955 283.561C168.092 284.404 168.138 285.224 168.138 285.976C168.138 287.594 167.705 288.869 166.862 289.826C166.02 290.76 164.517 291.672 162.399 292.538L153.426 296.206V296.183ZM159.962 286.864C160.782 286.523 161.328 286.158 161.602 285.725C161.875 285.292 161.989 284.7 161.898 283.925C161.829 283.424 161.738 282.877 161.602 282.262C161.465 281.647 161.192 280.781 160.782 279.665C160.372 278.549 159.802 277.068 159.074 275.222C158.345 273.377 157.366 270.939 156.136 267.932C154.929 264.993 153.95 262.646 153.198 260.823C152.447 259.023 151.809 257.565 151.308 256.472C150.807 255.378 150.397 254.535 150.078 253.988C149.759 253.441 149.418 252.963 149.076 252.576C148.552 251.983 148.028 251.619 147.527 251.505C147.026 251.368 146.389 251.482 145.614 251.778L142.13 253.214L156.477 288.277L159.962 286.842V286.864Z" fill="#E30613"/>
<path d="M217.26 354.439H36.9844V369.681H217.26V354.439Z" fill="#E6EDEC"/>
<path d="M217.26 378.772H36.9844V394.014H217.26V378.772Z" fill="#E6EDEC"/>
<path d="M133.043 403.127H36.9844V418.369H133.043V403.127Z" fill="#E6EDEC"/>
<path d="M68.0526 105.727V129H63.1321V105.727H68.0526ZM91.5668 105.727V129H87.3168L77.1918 114.352H77.0213V129H72.1009V105.727H76.419L86.4645 120.364H86.669V105.727H91.5668ZM99.8366 105.727L105.462 123.409H105.678L111.314 105.727H116.768L108.746 129H102.405L94.3707 105.727H99.8366ZM139.643 117.364C139.643 119.902 139.162 122.061 138.2 123.841C137.246 125.621 135.943 126.981 134.291 127.92C132.647 128.852 130.799 129.318 128.746 129.318C126.678 129.318 124.821 128.848 123.178 127.909C121.534 126.97 120.234 125.61 119.28 123.83C118.325 122.049 117.848 119.894 117.848 117.364C117.848 114.826 118.325 112.667 119.28 110.886C120.234 109.106 121.534 107.75 123.178 106.818C124.821 105.879 126.678 105.409 128.746 105.409C130.799 105.409 132.647 105.879 134.291 106.818C135.943 107.75 137.246 109.106 138.2 110.886C139.162 112.667 139.643 114.826 139.643 117.364ZM134.655 117.364C134.655 115.72 134.409 114.333 133.916 113.205C133.431 112.076 132.746 111.22 131.859 110.636C130.973 110.053 129.935 109.761 128.746 109.761C127.556 109.761 126.518 110.053 125.632 110.636C124.746 111.22 124.056 112.076 123.564 113.205C123.079 114.333 122.837 115.72 122.837 117.364C122.837 119.008 123.079 120.394 123.564 121.523C124.056 122.652 124.746 123.508 125.632 124.091C126.518 124.674 127.556 124.966 128.746 124.966C129.935 124.966 130.973 124.674 131.859 124.091C132.746 123.508 133.431 122.652 133.916 121.523C134.409 120.394 134.655 119.008 134.655 117.364ZM148.209 105.727V129H143.288V105.727H148.209ZM172.791 113.875H167.814C167.723 113.231 167.537 112.659 167.257 112.159C166.977 111.652 166.617 111.22 166.178 110.864C165.738 110.508 165.231 110.235 164.655 110.045C164.087 109.856 163.469 109.761 162.803 109.761C161.598 109.761 160.549 110.061 159.655 110.659C158.761 111.25 158.068 112.114 157.575 113.25C157.083 114.379 156.837 115.75 156.837 117.364C156.837 119.023 157.083 120.417 157.575 121.545C158.075 122.674 158.772 123.527 159.666 124.102C160.56 124.678 161.594 124.966 162.768 124.966C163.428 124.966 164.037 124.879 164.598 124.705C165.166 124.53 165.67 124.277 166.109 123.943C166.549 123.602 166.912 123.189 167.2 122.705C167.496 122.22 167.7 121.667 167.814 121.045L172.791 121.068C172.662 122.136 172.34 123.167 171.825 124.159C171.318 125.144 170.632 126.027 169.768 126.807C168.912 127.58 167.89 128.193 166.7 128.648C165.518 129.095 164.181 129.318 162.689 129.318C160.613 129.318 158.757 128.848 157.121 127.909C155.492 126.97 154.204 125.61 153.257 123.83C152.318 122.049 151.848 119.894 151.848 117.364C151.848 114.826 152.325 112.667 153.28 110.886C154.234 109.106 155.53 107.75 157.166 106.818C158.803 105.879 160.643 105.409 162.689 105.409C164.037 105.409 165.287 105.598 166.439 105.977C167.598 106.356 168.625 106.909 169.518 107.636C170.412 108.356 171.14 109.239 171.7 110.284C172.268 111.33 172.632 112.527 172.791 113.875ZM176.32 129V105.727H192.001V109.784H181.24V115.33H191.195V119.386H181.24V124.943H192.047V129H176.32Z" fill="black"/>
</g>
<defs>
<filter id="filter0_d_206_1679" x="0.0405273" y="42.0291" width="252.045" height="421.848" filterUnits="userSpaceOnUse" color-interpolation-filters="sRGB">
<feFlood flood-opacity="0" result="BackgroundImageFix"/>
<feColorMatrix in="SourceAlpha" type="matrix" values="0 0 0 0 0 0 0 0 0 0 0 0 0 0 0 0 0 0 127 0" result="hardAlpha"/>
<feOffset dy="4"/>
<feGaussianBlur stdDeviation="10"/>
<feComposite in2="hardAlpha" operator="out"/>
<feColorMatrix type="matrix" values="0 0 0 0 0.355955 0 0 0 0 0.401751 0 0 0 0 0.420833 0 0 0 0.5 0"/>
<feBlend mode="normal" in2="BackgroundImageFix" result="effect1_dropShadow_206_1679"/>
<feBlend mode="normal" in="SourceGraphic" in2="effect1_dropShadow_206_1679" result="shape"/>
</filter>
<clipPath id="clip0_206_1679">
<rect width="257" height="490" fill="white"/>
</clipPath>
</defs>
</svg>
