<svg width="434" height="97" viewBox="0 0 434 97" fill="none" xmlns="http://www.w3.org/2000/svg">
<path d="M12.5948 28.6223H9.97997C9.70715 28.4839 9.47675 28.2744 9.31309 28.0159C9.14942 27.7573 9.05856 27.4594 9.05009 27.1535C9.03281 27.0306 9.04345 26.9054 9.08123 26.7872C9.119 26.669 9.18293 26.5608 9.26826 26.4708C9.35359 26.3807 9.45812 26.311 9.57408 26.267C9.69004 26.2229 9.81444 26.2056 9.93802 26.2162C10.5043 26.2162 10.9029 26.5939 11.0077 27.2864H12.448C12.3151 25.5518 11.3573 24.6425 9.91704 24.6425C9.60097 24.6177 9.28326 24.6613 8.98551 24.7702C8.68775 24.8792 8.41692 25.0509 8.19142 25.2739C7.96591 25.4968 7.79101 25.7657 7.67859 26.0623C7.56618 26.3588 7.51888 26.6761 7.53992 26.9926C7.53297 27.5978 7.76106 28.182 8.17615 28.6223H7.26025V30.1961H12.5948V28.6223Z" fill="#53BAAE"/>
<path d="M17.1601 34.7355C17.1601 35.9385 16.6777 36.9247 15.1046 36.9247H5.74286C5.38399 36.9429 5.02531 36.8854 4.69006 36.756C4.3548 36.6267 4.05044 36.4283 3.79668 36.1738C3.54293 35.9193 3.34544 35.6143 3.21701 35.2786C3.08857 34.9428 3.03205 34.5839 3.05111 34.2249V30.2241H0.00279486V34.2249C-0.0212901 34.9868 0.110499 35.7456 0.390077 36.4548C0.669655 37.1639 1.09112 37.8084 1.62862 38.3488C2.16612 38.8891 2.80832 39.3139 3.5158 39.597C4.22329 39.8801 4.98114 40.0157 5.74286 39.9953H16.2302C16.756 40.0077 17.2789 39.9133 17.7672 39.7177C18.2555 39.5221 18.699 39.2294 19.0709 38.8573C19.4428 38.4853 19.7354 38.0415 19.9309 37.5531C20.1264 37.0646 20.2208 36.5415 20.2084 36.0155V21.4111H17.1601V34.7355Z" fill="#53BAAE"/>
<path d="M25.3195 40.3169C25.3355 40.6754 25.2765 41.0333 25.1464 41.3677C25.0164 41.7021 24.818 42.0057 24.5641 42.2591C24.3101 42.5125 24.0061 42.7101 23.6715 42.8394C23.3369 42.9686 22.979 43.0267 22.6208 43.0098H21.3413V46.0803H22.6487C23.4103 46.0975 24.1675 45.9602 24.8746 45.6767C25.5817 45.3933 26.2241 44.9695 26.7631 44.4309C27.302 43.8924 27.7264 43.2502 28.0106 42.5432C28.2949 41.8361 28.433 41.0788 28.4168 40.3169V27.1255H25.3195V40.3169Z" fill="#53BAAE"/>
<path d="M62.1371 42.1285C61.8856 42.113 61.6336 42.1492 61.3966 42.2348C61.1596 42.3204 60.9427 42.4536 60.7591 42.6263C60.5756 42.7989 60.4293 43.0074 60.3293 43.2387C60.2293 43.4701 60.1777 43.7195 60.1777 43.9715C60.1777 44.2236 60.2293 44.473 60.3293 44.7043C60.4293 44.9357 60.5756 45.1441 60.7591 45.3168C60.9427 45.4894 61.1596 45.6227 61.3966 45.7083C61.6336 45.7939 61.8856 45.8301 62.1371 45.8146C62.3885 45.8301 62.6405 45.7939 62.8775 45.7083C63.1145 45.6227 63.3314 45.4894 63.515 45.3168C63.6985 45.1441 63.8448 44.9357 63.9448 44.7043C64.0448 44.473 64.0964 44.2236 64.0964 43.9715C64.0964 43.7195 64.0448 43.4701 63.9448 43.2387C63.8448 43.0074 63.6985 42.7989 63.515 42.6263C63.3314 42.4536 63.1145 42.3204 62.8775 42.2348C62.6405 42.1492 62.3885 42.113 62.1371 42.1285Z" fill="#53BAAE"/>
<path d="M74.5887 35.7216C74.6003 35.8755 74.5799 36.0301 74.5289 36.1757C74.4779 36.3213 74.3974 36.4548 74.2923 36.5678C74.1872 36.6807 74.06 36.7708 73.9185 36.8322C73.777 36.8936 73.6243 36.9251 73.4701 36.9246H69.9743C69.415 36.8477 68.7788 36.7638 67.2546 33.3225C64.5908 27.5731 60.3749 25.3349 55.5717 27.0975V29.8953C59.5709 28.3425 61.948 29.8953 63.8917 33.6862C64.3708 34.8007 64.9438 35.8724 65.6046 36.8897H53.7189C53.4901 36.8988 53.2618 36.86 53.0489 36.7756C52.8359 36.6913 52.6429 36.5634 52.4822 36.4001C52.3216 36.2367 52.1969 36.0416 52.1161 35.8272C52.0353 35.6128 52.0001 35.3838 52.013 35.1551V32.1964C52.0311 31.4226 51.8924 30.6532 51.6053 29.9344C51.3183 29.2156 50.8888 28.5624 50.3426 28.0141C49.7965 27.4658 49.1451 27.0338 48.4277 26.744C47.7103 26.4543 46.9416 26.3128 46.1681 26.3281H45.8744C45.1009 26.3128 44.3322 26.4543 43.6148 26.744C42.8973 27.0338 42.2459 27.4658 41.6998 28.0141C41.1537 28.5624 40.7242 29.2156 40.4371 29.9344C40.1501 30.6532 40.0114 31.4226 40.0295 32.1964V35.19C40.0423 35.4188 40.0072 35.6477 39.9264 35.8622C39.8456 36.0766 39.7209 36.2717 39.5602 36.435C39.3996 36.5984 39.2066 36.7263 38.9936 36.8106C38.7806 36.8949 38.5524 36.9338 38.3235 36.9246H36.1492C35.9949 36.9251 35.8423 36.8936 35.7008 36.8322C35.5593 36.7708 35.432 36.6807 35.327 36.5678C35.2219 36.4548 35.1413 36.3213 35.0903 36.1757C35.0393 36.0301 35.0189 35.8755 35.0305 35.7216V21.411H31.9612V36.7987C31.9556 37.221 32.0346 37.6401 32.1935 38.0313C32.3524 38.4225 32.5881 38.7779 32.8865 39.0765C33.185 39.3751 33.5403 39.6108 33.9313 39.7698C34.3224 39.9288 34.7413 40.0078 35.1634 40.0022H38.3375C39.0113 40.0139 39.6785 39.8675 40.2856 39.5748C40.8926 39.2821 41.4227 38.8511 41.8333 38.3165C43.0858 39.3574 44.6656 39.9222 46.2939 39.9112C47.0223 39.9081 47.7416 39.7491 48.4036 39.4452C49.0656 39.1412 49.655 38.6991 50.1323 38.1487C50.5262 38.7322 51.0605 39.2071 51.6861 39.5298C52.3117 39.8525 53.0083 40.0125 53.712 39.9952H74.4629C74.8834 40 75.3006 39.9201 75.6897 39.7605C76.0788 39.6008 76.4319 39.3646 76.7279 39.0658C77.024 38.767 77.2571 38.4117 77.4132 38.0211C77.5694 37.6304 77.6455 37.2124 77.6371 36.7917V21.4041H74.5678L74.5887 35.7216ZM48.9577 34.0429C48.9747 34.7636 48.7065 35.4618 48.2116 35.9857C47.7167 36.5097 47.0351 36.8169 46.3149 36.8407C45.7039 36.8604 45.0967 36.738 44.5411 36.4831C43.9854 36.2283 43.4965 35.8479 43.1127 35.3719V32.1964C43.0914 31.8234 43.1492 31.4502 43.2822 31.1011C43.4152 30.752 43.6205 30.4349 43.8845 30.1708C44.1486 29.9066 44.4655 29.7012 44.8145 29.5682C45.1634 29.4351 45.5365 29.3773 45.9094 29.3987H46.203C46.5759 29.3773 46.949 29.4351 47.2979 29.5682C47.6469 29.7012 47.9638 29.9066 48.2278 30.1708C48.4919 30.4349 48.6972 30.752 48.8302 31.1011C48.9632 31.4502 49.0209 31.8234 48.9996 32.1964L48.9577 34.0429Z" fill="#53BAAE"/>
<path d="M84.3842 21.4111H81.3149V39.9883H84.3842V21.4111Z" fill="#53BAAE"/>
<path d="M93.7735 26.3492H93.4798C92.7073 26.331 91.9391 26.4699 91.2217 26.7573C90.5044 27.0447 89.8528 27.4747 89.3063 28.0214C88.7599 28.568 88.3301 29.2199 88.0428 29.9375C87.7555 30.6552 87.6167 31.4237 87.6349 32.1966V34.092C87.6142 35.6192 88.1966 37.0929 89.2556 38.1929C90.3147 39.293 91.7648 39.9306 93.291 39.9673H96.5211V40.45C96.5211 42.6112 94.8921 43.7863 89.6065 42.849V45.7098C96.0947 47.2275 99.5904 44.9334 99.5904 41.1914V32.1966C99.6115 31.4253 99.4756 30.6579 99.1911 29.9408C98.9066 29.2237 98.4793 28.5719 97.9353 28.025C97.3913 27.4782 96.7418 27.0476 96.0264 26.7596C95.311 26.4715 94.5445 26.3319 93.7735 26.3492ZM96.5211 36.8968H93.319C92.6092 36.8506 91.9438 36.5355 91.458 36.0157C90.9722 35.496 90.7027 34.8106 90.7042 34.099V32.1966C90.6829 31.8236 90.7406 31.4503 90.8736 31.1012C91.0066 30.7521 91.2119 30.4351 91.476 30.1709C91.74 29.9067 92.0569 29.7014 92.4059 29.5683C92.7548 29.4353 93.128 29.3775 93.5008 29.3988H93.7944C94.1641 29.3813 94.5333 29.442 94.8779 29.5771C95.2225 29.7122 95.5347 29.9185 95.794 30.1826C96.0534 30.4467 96.2541 30.7626 96.383 31.1097C96.5119 31.4567 96.5662 31.8271 96.5421 32.1966L96.5211 36.8968Z" fill="#53BAAE"/>
<path d="M111.378 24.1879C111.864 24.1825 112.329 23.9869 112.673 23.6431C113.016 23.2993 113.212 22.8346 113.217 22.3484C113.22 21.9806 113.113 21.6204 112.911 21.3134C112.708 21.0065 112.419 20.7667 112.08 20.6247C111.741 20.4827 111.367 20.4448 111.006 20.5159C110.646 20.587 110.314 20.7638 110.054 21.0238C109.794 21.2839 109.618 21.6154 109.547 21.9763C109.476 22.3371 109.513 22.711 109.655 23.0502C109.797 23.3895 110.037 23.6788 110.344 23.8814C110.651 24.084 111.011 24.1907 111.378 24.1879Z" fill="#53BAAE"/>
<path d="M116.608 24.1878C117.095 24.1878 117.563 23.994 117.908 23.6491C118.253 23.3041 118.447 22.8362 118.447 22.3483C118.447 21.8604 118.253 21.3926 117.908 21.0476C117.563 20.7026 117.095 20.5088 116.608 20.5088C116.124 20.5195 115.662 20.7167 115.319 21.0594C114.977 21.4021 114.78 21.8638 114.769 22.3483C114.774 22.8345 114.97 23.2992 115.314 23.643C115.657 23.9868 116.122 24.1824 116.608 24.1878Z" fill="#53BAAE"/>
<path d="M126.927 43.0098C126.559 43.0112 126.199 43.122 125.894 43.3282C125.589 43.5345 125.351 43.8268 125.212 44.1681C125.073 44.5094 125.039 44.8843 125.113 45.2453C125.187 45.6063 125.367 45.9371 125.629 46.1957C125.892 46.4544 126.225 46.6292 126.587 46.698C126.949 46.7669 127.323 46.7266 127.662 46.5824C128.001 46.4381 128.29 46.1964 128.491 45.8879C128.693 45.5793 128.798 45.2178 128.794 44.8493C128.783 44.36 128.582 43.8942 128.234 43.5508C127.885 43.2074 127.417 43.0133 126.927 43.0098Z" fill="#53BAAE"/>
<path d="M139.072 42.5271C138.599 42.5561 138.156 42.7644 137.831 43.1095C137.507 43.4546 137.326 43.9104 137.326 44.3841C137.326 44.8578 137.507 45.3137 137.831 45.6587C138.156 46.0038 138.599 46.2121 139.072 46.2411C139.545 46.2121 139.988 46.0038 140.313 45.6587C140.637 45.3137 140.818 44.8578 140.818 44.3841C140.818 43.9104 140.637 43.4546 140.313 43.1095C139.988 42.7644 139.545 42.5561 139.072 42.5271Z" fill="#53BAAE"/>
<path d="M140.268 36.7917V27.3422H137.184V35.7355C137.195 35.8892 137.174 36.0433 137.122 36.1885C137.071 36.3336 136.99 36.4667 136.885 36.5795C136.781 36.6922 136.654 36.7823 136.513 36.844C136.372 36.9058 136.22 36.938 136.066 36.9386H130.521C128.969 36.9386 128.466 35.9523 128.466 34.7493V34.2947C128.479 34.0454 128.479 33.7956 128.466 33.5463V27.3632H125.369V34.8123C125.369 35.9593 124.886 36.9106 123.341 36.9106H121.209C120.978 36.9227 120.747 36.8861 120.531 36.8032C120.315 36.7203 120.119 36.5929 119.956 36.4294C119.792 36.2658 119.665 36.0697 119.582 35.8538C119.499 35.6379 119.463 35.4069 119.475 35.176V26.328H113.413C112.641 26.3126 111.873 26.4542 111.157 26.7442C110.441 27.0343 109.792 27.4668 109.248 28.0155C108.704 28.5642 108.277 29.2177 107.993 29.9364C107.709 30.655 107.574 31.4239 107.596 32.1964V34.0429C107.575 35.5741 108.162 37.0512 109.227 38.1509C110.292 39.2507 111.75 39.8836 113.28 39.9112C114.056 39.9506 114.832 39.8181 115.551 39.5231C116.27 39.2281 116.915 38.7779 117.44 38.2045C117.898 38.7742 118.48 39.2316 119.142 39.542C119.803 39.8523 120.527 40.0073 121.258 39.9951H123.355C124.029 40.0285 124.701 39.9116 125.324 39.6527C125.947 39.3938 126.504 38.9994 126.956 38.4983C127.355 38.9505 127.843 39.3164 128.389 39.5738C128.934 39.8311 129.527 39.9745 130.13 39.9951H137.065C137.488 40.0008 137.906 39.9218 138.298 39.7628C138.689 39.6038 139.044 39.368 139.342 39.0694C139.641 38.7708 139.876 38.4154 140.035 38.0242C140.194 37.633 140.273 37.2139 140.268 36.7917ZM116.496 35.3508C116.118 35.8263 115.634 36.2067 115.083 36.4618C114.532 36.7168 113.929 36.8394 113.322 36.8197C112.966 36.8098 112.616 36.7293 112.291 36.5829C111.966 36.4366 111.674 36.2272 111.431 35.967C111.188 35.7068 110.998 35.4008 110.874 35.067C110.75 34.7331 110.693 34.3779 110.707 34.0219V32.1964C110.683 31.8269 110.737 31.4565 110.866 31.1095C110.995 30.7624 111.196 30.4465 111.455 30.1824C111.715 29.9183 112.027 29.712 112.372 29.5769C112.716 29.4418 113.085 29.3811 113.455 29.3986H116.496V35.3508Z" fill="#53BAAE"/>
<path d="M133.842 42.5272C133.589 42.5116 133.335 42.5481 133.096 42.6344C132.858 42.7207 132.639 42.8549 132.454 43.0289C132.269 43.2029 132.122 43.4129 132.021 43.6459C131.921 43.879 131.869 44.1303 131.869 44.3842C131.869 44.6381 131.921 44.8894 132.021 45.1224C132.122 45.3555 132.269 45.5655 132.454 45.7395C132.639 45.9135 132.858 46.0477 133.096 46.134C133.335 46.2203 133.589 46.2568 133.842 46.2412C134.315 46.2122 134.759 46.0039 135.083 45.6588C135.408 45.3138 135.588 44.8579 135.588 44.3842C135.588 43.9105 135.408 43.4546 135.083 43.1096C134.759 42.7645 134.315 42.5562 133.842 42.5272Z" fill="#53BAAE"/>
<path d="M165.696 24.7753C166.061 24.7726 166.417 24.6619 166.72 24.4571C167.022 24.2524 167.258 23.9628 167.396 23.6247C167.535 23.2866 167.57 22.9151 167.498 22.5568C167.426 22.1986 167.25 21.8696 166.992 21.6112C166.734 21.3529 166.405 21.1766 166.047 21.1047C165.689 21.0327 165.317 21.0682 164.979 21.2068C164.641 21.3453 164.352 21.5807 164.147 21.8834C163.943 22.186 163.832 22.5425 163.829 22.9078C163.829 23.4031 164.026 23.8781 164.376 24.2284C164.726 24.5786 165.201 24.7753 165.696 24.7753Z" fill="#53BAAE"/>
<path d="M176.791 35.7216C176.803 35.8785 176.782 36.0361 176.729 36.1841C176.676 36.3322 176.592 36.4674 176.483 36.5809C176.374 36.6944 176.243 36.7837 176.097 36.8429C175.951 36.9022 175.795 36.93 175.638 36.9246H172.631V34.5675C172.631 29.0979 170.366 26.531 165.828 26.531C162.864 26.531 160.305 28.5593 158.222 30.9374V27.8739H155.152V36.9246H150.915V27.1325H147.818V40.3169C147.837 40.6737 147.781 41.0306 147.654 41.3644C147.527 41.6983 147.331 42.0018 147.079 42.2555C146.828 42.5091 146.526 42.7073 146.193 42.8372C145.86 42.9671 145.504 43.0259 145.147 43.0098H143.812V46.0803H145.147C145.909 46.0975 146.666 45.9602 147.373 45.6767C148.08 45.3933 148.723 44.9695 149.262 44.4309C149.801 43.8924 150.225 43.2502 150.509 42.5432C150.794 41.8361 150.932 41.0788 150.915 40.3169V39.9952H176.679C177.098 39.9962 177.512 39.9136 177.899 39.7524C178.285 39.5911 178.635 39.3544 178.929 39.0561C179.222 38.7578 179.453 38.4039 179.609 38.015C179.764 37.6262 179.84 37.2104 179.833 36.7917V21.4041H176.763L176.791 35.7216ZM169.674 36.9246H158.222V33.8681C160.599 31.0703 163.025 29.5945 165.451 29.5945C167.877 29.5945 169.646 31.0353 169.646 34.5885L169.674 36.9246Z" fill="#53BAAE"/>
<path d="M186.58 21.4111H183.51V39.9883H186.58V21.4111Z" fill="#53BAAE"/>
<path d="M195.969 26.3492H195.676C194.903 26.331 194.135 26.4699 193.418 26.7573C192.7 27.0447 192.049 27.4747 191.502 28.0214C190.956 28.568 190.526 29.2199 190.239 29.9375C189.951 30.6552 189.812 31.4237 189.831 32.1966V34.092C189.81 35.6204 190.393 37.0951 191.454 38.1953C192.514 39.2956 193.966 39.9325 195.494 39.9673H198.71V40.45C198.71 42.6112 197.088 43.7863 191.802 42.849V45.7098C198.283 47.2275 201.779 44.9334 201.779 41.1914V32.1966C201.8 31.4259 201.665 30.6591 201.381 29.9424C201.096 29.2258 200.67 28.5744 200.127 28.0276C199.583 27.4809 198.935 27.0502 198.22 26.7617C197.505 26.4732 196.74 26.3329 195.969 26.3492ZM198.71 36.8968H195.508C194.798 36.8506 194.133 36.5355 193.647 36.0157C193.161 35.496 192.891 34.8106 192.893 34.099V32.1966C192.872 31.8236 192.929 31.4503 193.062 31.1012C193.195 30.7521 193.401 30.4351 193.665 30.1709C193.929 29.9067 194.246 29.7014 194.595 29.5683C194.944 29.4353 195.317 29.3775 195.69 29.3988H195.983C196.353 29.3813 196.722 29.442 197.067 29.5771C197.411 29.7122 197.723 29.9185 197.983 30.1826C198.242 30.4467 198.443 30.7626 198.572 31.1097C198.701 31.4567 198.755 31.8271 198.731 32.1966L198.71 36.8968Z" fill="#53BAAE"/>
<path d="M218.755 24.5656C219.227 24.5366 219.671 24.3283 219.995 23.9832C220.32 23.6381 220.5 23.1823 220.5 22.7086C220.5 22.2349 220.32 21.779 219.995 21.4339C219.671 21.0889 219.227 20.8806 218.755 20.8516C218.282 20.8806 217.838 21.0889 217.514 21.4339C217.189 21.779 217.009 22.2349 217.009 22.7086C217.009 23.1823 217.189 23.6381 217.514 23.9832C217.838 24.3283 218.282 24.5366 218.755 24.5656Z" fill="#53BAAE"/>
<path d="M213.525 24.5655C213.891 24.5641 214.249 24.4545 214.553 24.2504C214.858 24.0463 215.095 23.7569 215.235 23.4185C215.376 23.08 215.413 22.7076 215.343 22.3479C215.273 21.9882 215.098 21.6574 214.84 21.3968C214.583 21.1362 214.254 20.9575 213.895 20.8832C213.536 20.8088 213.164 20.8421 212.824 20.9789C212.484 21.1156 212.192 21.3497 211.985 21.6518C211.777 21.9539 211.664 22.3106 211.658 22.677C211.656 22.924 211.702 23.1691 211.794 23.3981C211.887 23.6271 212.024 23.8355 212.198 24.0111C212.371 24.1868 212.578 24.3262 212.806 24.4214C213.034 24.5165 213.278 24.5655 213.525 24.5655Z" fill="#53BAAE"/>
<path d="M215.818 26.3281H215.392C214.644 26.3263 213.902 26.4719 213.21 26.7567C212.518 27.0415 211.889 27.4598 211.359 27.9879C210.828 28.5159 210.407 29.1433 210.119 29.8342C209.831 30.5251 209.682 31.266 209.68 32.0146V34.2808C209.675 35.0312 209.82 35.7751 210.106 36.4689C210.391 37.1628 210.812 37.7928 211.344 38.3221C211.876 38.8514 212.508 39.2695 213.203 39.552C213.898 39.8344 214.642 39.9756 215.392 39.9672H216.056C216.775 39.9654 217.486 39.8216 218.15 39.5441C218.813 39.2665 219.415 38.8607 219.921 38.35C220.427 37.8392 220.827 37.2335 221.098 36.5676C221.37 35.9017 221.507 35.1888 221.503 34.4696V32.0146C221.504 31.2673 221.359 30.527 221.074 29.8363C220.789 29.1456 220.37 28.518 219.842 27.9896C219.314 27.4611 218.686 27.0424 217.996 26.7572C217.305 26.4721 216.565 26.3263 215.818 26.3281ZM218.433 34.6025C218.435 35.2031 218.201 35.7804 217.781 36.2096C217.361 36.6389 216.789 36.8857 216.189 36.8967H215.413C214.717 36.8893 214.052 36.6075 213.562 36.1125C213.073 35.6175 212.798 34.9492 212.798 34.2528V32.0146C212.787 31.6682 212.848 31.3232 212.975 31.001C213.103 30.6788 213.295 30.3862 213.54 30.1411C213.785 29.8961 214.078 29.7038 214.4 29.5761C214.722 29.4484 215.067 29.388 215.413 29.3987H215.839C216.186 29.388 216.53 29.4484 216.853 29.5761C217.175 29.7038 217.467 29.8961 217.712 30.1411C217.957 30.3862 218.149 30.6788 218.277 31.001C218.405 31.3232 218.465 31.6682 218.454 32.0146L218.433 34.6025Z" fill="#53BAAE"/>
<path d="M254.069 24.6984C254.438 24.7026 254.799 24.5972 255.107 24.3956C255.416 24.194 255.657 23.9053 255.802 23.5662C255.946 23.227 255.986 22.8526 255.917 22.4906C255.848 22.1285 255.674 21.795 255.415 21.5324C255.157 21.2699 254.826 21.09 254.465 21.0157C254.104 20.9414 253.729 20.976 253.388 21.1151C253.047 21.2542 252.755 21.4916 252.549 21.7971C252.343 22.1025 252.232 22.4624 252.23 22.8309C252.232 23.3209 252.426 23.7907 252.769 24.1397C253.113 24.4887 253.58 24.6893 254.069 24.6984Z" fill="#53BAAE"/>
<path d="M260.396 35.7216C260.408 35.8761 260.388 36.0312 260.336 36.1773C260.285 36.3234 260.203 36.4573 260.098 36.5703C259.992 36.6834 259.864 36.7733 259.721 36.8343C259.579 36.8953 259.426 36.926 259.271 36.9246H255.67V27.1325H252.58V40.3169C252.599 40.6737 252.543 41.0306 252.416 41.3644C252.288 41.6983 252.093 42.0018 251.841 42.2555C251.589 42.5091 251.288 42.7073 250.955 42.8372C250.622 42.9671 250.266 43.0259 249.909 43.0098H248.574V46.0803H249.909C250.67 46.0965 251.427 45.9585 252.133 45.6746C252.839 45.3907 253.481 44.9668 254.019 44.4284C254.557 43.8899 254.981 43.2481 255.265 42.5415C255.548 41.8349 255.686 41.0782 255.67 40.3169V39.9952H260.285C260.705 39.9999 261.123 39.9201 261.512 39.7606C261.902 39.601 262.255 39.3649 262.552 39.0662C262.849 38.7675 263.082 38.4123 263.239 38.0216C263.396 37.6309 263.473 37.2127 263.466 36.7917V21.4041H260.396V35.7216Z" fill="#53BAAE"/>
<path d="M270.185 21.4111H267.115V39.9883H270.185V21.4111Z" fill="#53BAAE"/>
<path d="M282.483 24.1879C282.969 24.1825 283.433 23.9869 283.777 23.6431C284.121 23.2993 284.316 22.8346 284.322 22.3484C284.324 21.9806 284.218 21.6204 284.015 21.3134C283.813 21.0065 283.524 20.7667 283.184 20.6247C282.845 20.4827 282.472 20.4448 282.111 20.5159C281.75 20.587 281.419 20.7638 281.159 21.0238C280.899 21.2839 280.722 21.6154 280.651 21.9763C280.58 22.3371 280.618 22.711 280.76 23.0502C280.902 23.3895 281.142 23.6788 281.448 23.8814C281.755 24.084 282.115 24.1907 282.483 24.1879Z" fill="#53BAAE"/>
<path d="M287.712 24.1878C288.2 24.1878 288.668 23.994 289.013 23.6491C289.357 23.3041 289.551 22.8362 289.551 22.3483C289.551 21.8604 289.357 21.3926 289.013 21.0476C288.668 20.7026 288.2 20.5088 287.712 20.5088C287.228 20.5195 286.766 20.7167 286.424 21.0594C286.081 21.4021 285.884 21.8638 285.874 22.3483C285.879 22.8345 286.074 23.2992 286.418 23.643C286.762 23.9868 287.226 24.1824 287.712 24.1878Z" fill="#53BAAE"/>
<path d="M300.143 23.2577H297.347C297.064 23.1137 296.826 22.896 296.657 22.6275C296.489 22.359 296.396 22.0499 296.389 21.7329C296.37 21.6062 296.379 21.4769 296.417 21.3544C296.454 21.2319 296.518 21.1192 296.605 21.0247C296.691 20.9302 296.798 20.8562 296.916 20.8081C297.035 20.76 297.163 20.739 297.291 20.7467C297.586 20.752 297.869 20.8714 298.078 21.0799C298.288 21.2885 298.409 21.57 298.416 21.8658H299.989C299.857 19.9983 298.815 19.068 297.27 19.068C296.932 19.0376 296.591 19.0811 296.272 19.1957C295.953 19.3103 295.662 19.4931 295.42 19.7314C295.179 19.9697 294.992 20.2579 294.873 20.5757C294.754 20.8936 294.706 21.2336 294.732 21.572C294.724 22.2036 294.954 22.815 295.375 23.2856H294.41V25.0203H300.122L300.143 23.2577Z" fill="#53BAAE"/>
<path d="M304.835 42.4783C304.467 42.4769 304.108 42.5848 303.802 42.7882C303.496 42.9917 303.258 43.2815 303.117 43.6209C302.976 43.9603 302.939 44.3339 303.011 44.6943C303.083 45.0547 303.26 45.3856 303.52 45.6449C303.78 45.9043 304.112 46.0804 304.472 46.1509C304.833 46.2214 305.206 46.1831 305.545 46.0409C305.884 45.8986 306.172 45.6589 306.375 45.3521C306.577 45.0453 306.683 44.6853 306.681 44.3178C306.67 43.8321 306.472 43.3694 306.128 43.0265C305.784 42.6837 305.32 42.4872 304.835 42.4783Z" fill="#53BAAE"/>
<path d="M310.064 42.4783C309.697 42.4769 309.338 42.5848 309.032 42.7882C308.726 42.9917 308.487 43.2815 308.346 43.6209C308.205 43.9603 308.169 44.3339 308.24 44.6943C308.312 45.0547 308.489 45.3856 308.75 45.6449C309.01 45.9043 309.341 46.0804 309.702 46.1509C310.062 46.2214 310.436 46.1831 310.774 46.0409C311.113 45.8986 311.402 45.6589 311.604 45.3521C311.806 45.0453 311.913 44.6853 311.91 44.3178C311.905 43.8304 311.708 43.3647 311.363 43.0207C311.018 42.6767 310.551 42.4819 310.064 42.4783Z" fill="#53BAAE"/>
<path d="M320.125 26.8037V28.3564C319.075 28.6068 318.14 29.2042 317.471 30.0521C316.803 30.9 316.44 31.9487 316.441 33.0287V34.4276C316.436 35.3426 316.77 36.227 317.378 36.9106H311.533C309.987 36.9106 309.477 35.9244 309.477 34.7214V34.2667C309.491 34.0174 309.491 33.7676 309.477 33.5183V27.3632H306.387V34.8123C306.387 35.9594 305.911 36.9106 304.359 36.9106H301.08C299.507 36.9106 299.025 35.9244 299.025 34.7214V27.3632H295.955V34.7353C295.955 35.9384 295.529 36.9246 293.928 36.9246H292.397C292.166 36.9367 291.935 36.9001 291.719 36.8172C291.503 36.7343 291.307 36.6069 291.144 36.4434C290.98 36.2798 290.853 36.0837 290.77 35.8678C290.687 35.6519 290.651 35.421 290.663 35.19V26.3281H284.552C283.78 26.3126 283.012 26.4542 282.297 26.7443C281.581 27.0343 280.931 27.4668 280.387 28.0155C279.843 28.5642 279.416 29.2177 279.132 29.9364C278.848 30.6551 278.713 31.4239 278.735 32.1964V34.0429C278.715 35.5741 279.301 37.0512 280.366 38.1509C281.432 39.2507 282.889 39.8836 284.419 39.9112C285.196 39.9507 285.971 39.8182 286.69 39.5231C287.409 39.2281 288.054 38.7779 288.579 38.2046C289.037 38.7742 289.619 39.2317 290.281 39.542C290.942 39.8523 291.666 40.0073 292.397 39.9951H293.97C294.643 40.0281 295.316 39.9109 295.938 39.652C296.561 39.3931 297.119 38.9991 297.57 38.4983C297.964 38.9503 298.447 39.3165 298.988 39.574C299.529 39.8315 300.118 39.9748 300.717 39.9951H304.373C305.047 40.0281 305.719 39.9109 306.342 39.652C306.965 39.3931 307.522 38.9991 307.974 38.4983C308.373 38.9511 308.86 39.3175 309.406 39.5749C309.952 39.8323 310.545 39.9753 311.148 39.9951H328.249C329.003 39.9961 329.75 39.8482 330.447 39.5599C331.144 39.2716 331.777 38.8487 332.31 38.3153C332.844 37.7819 333.266 37.1485 333.554 36.4513C333.843 35.7542 333.99 35.0071 333.989 34.2527V32.4132C333.871 28.0347 328.424 24.7753 320.125 26.8037ZM287.58 35.3509C287.202 35.8263 286.718 36.2067 286.167 36.4618C285.615 36.7168 285.012 36.8394 284.405 36.8197C284.049 36.8098 283.699 36.7293 283.374 36.5829C283.05 36.4366 282.757 36.2272 282.514 35.967C282.271 35.7068 282.082 35.4009 281.957 35.067C281.833 34.7331 281.777 34.3779 281.791 34.0219V32.1964C281.766 31.8269 281.821 31.4565 281.95 31.1095C282.079 30.7624 282.279 30.4465 282.539 30.1824C282.798 29.9183 283.11 29.712 283.455 29.5769C283.799 29.4419 284.169 29.3811 284.538 29.3986H287.58V35.3509ZM324.236 36.9246H321.565C320.903 36.8866 320.278 36.6024 319.813 36.1275C319.349 35.6527 319.079 35.0215 319.056 34.3576V33.1686C319.056 31.5949 319.964 30.6576 321.67 30.6576C322.011 30.6239 322.355 30.6652 322.677 30.7787C323 30.8922 323.294 31.075 323.539 31.3144C323.783 31.5537 323.973 31.8438 324.093 32.1641C324.214 32.4845 324.262 32.8273 324.236 33.1686V36.9246ZM328.159 36.9246H326.851V33.2385C326.909 32.2922 326.625 31.3567 326.051 30.6019C325.478 29.8472 324.653 29.3234 323.726 29.1258C327.76 28.7272 330.801 30.3009 330.878 32.4132V34.1758C330.878 34.9 330.593 35.595 330.083 36.1097C329.574 36.6244 328.882 36.9172 328.159 36.9246Z" fill="#53BAAE"/>
<path d="M246.952 34.8962C246.952 36.2443 246.417 37.5373 245.466 38.4918C244.514 39.4464 243.223 39.9845 241.876 39.9882H228.026C227.604 39.9948 227.186 39.9166 226.795 39.7583C226.404 39.6 226.05 39.3648 225.752 39.0667C225.454 38.7685 225.218 38.4135 225.06 38.0227C224.902 37.6319 224.824 37.2133 224.83 36.7917V21.404H227.893V35.7286C227.882 35.8831 227.904 36.0381 227.956 36.1838C228.008 36.3296 228.09 36.4629 228.197 36.5753C228.303 36.6877 228.432 36.7768 228.574 36.8369C228.717 36.8971 228.871 36.9269 229.025 36.9246H241.687C241.995 36.9188 242.299 36.8502 242.579 36.723C242.86 36.5958 243.112 36.4127 243.319 36.1849C243.527 35.9571 243.685 35.6893 243.786 35.398C243.886 35.1067 243.926 34.7979 243.903 34.4906C243.903 32.8119 242.645 31.9586 240.967 31.9586H232.969L232.381 29.6714L237.08 21.3831L239.96 22.4812L236.304 28.8811H240.995C241.782 28.8791 242.563 29.0338 243.29 29.3362C244.017 29.6385 244.677 30.0824 245.231 30.6421C245.785 31.2017 246.223 31.866 246.518 32.5964C246.814 33.3267 246.961 34.1085 246.952 34.8962Z" fill="#53BAAE"/>
<path d="M11.2384 67.0566V69.4906H0.00292969V67.5392L7.27415 56.7678H0.443398V54.3547H10.9307V56.3272L3.71545 67.0566H11.2384Z" fill="#858585"/>
<path d="M14.4896 60.5027L14.0212 58.7121C17.6288 57.2083 22.5229 57.0964 22.5229 61.8456V69.4555H19.8172V68.0566C19.3765 68.5469 18.8373 68.9387 18.2349 69.2062C17.6326 69.4738 16.9805 69.6112 16.3214 69.6094C15.9184 69.6281 15.516 69.5614 15.1406 69.4134C14.7652 69.2655 14.4253 69.0398 14.1434 68.7511C13.8614 68.4624 13.6437 68.1173 13.5045 67.7384C13.3654 67.3595 13.308 66.9555 13.336 66.5529C13.336 64.0349 15.7901 62.3073 19.8591 62.4821V61.8876C19.8382 59.2227 17.0276 59.5305 14.4896 60.5027ZM15.811 66.2381C15.811 67.1404 16.5451 67.588 17.4471 67.588C17.8954 67.5855 18.3386 67.4919 18.7497 67.3127C19.1607 67.1336 19.531 66.8727 19.8382 66.5459V64.0209C17.0975 63.7341 15.811 65.175 15.811 66.2381Z" fill="#858585"/>
<path d="M37.5897 60.5027L37.1213 58.7121C40.701 57.2083 45.5951 57.0964 45.5951 61.8456V69.4555H42.9173V68.0566C42.4766 68.5469 41.9374 68.9387 41.335 69.2062C40.7327 69.4738 40.0806 69.6112 39.4215 69.6094C39.0185 69.6281 38.6161 69.5614 38.2407 69.4134C37.8653 69.2655 37.5254 69.0398 37.2435 68.7511C36.9615 68.4624 36.7438 68.1173 36.6046 67.7384C36.4655 67.3595 36.4081 66.9555 36.4361 66.5529C36.4361 64.0349 38.8902 62.3073 42.9592 62.4821V61.8876C42.9383 59.2227 40.1277 59.5305 37.5897 60.5027ZM38.9111 66.2381C38.9111 67.1404 39.6452 67.588 40.5472 67.588C40.9955 67.5855 41.4387 67.4919 41.8498 67.3127C42.2608 67.1336 42.6311 66.8727 42.9383 66.5459V64.0209C40.1976 63.7341 38.9111 65.175 38.9111 66.2381Z" fill="#858585"/>
<path d="M51.6076 66.5878C51.5899 66.7403 51.6068 66.8948 51.6569 67.0399C51.7071 67.185 51.7894 67.3169 51.8975 67.4257C52.0057 67.5346 52.137 67.6177 52.2817 67.6688C52.4264 67.7199 52.5808 67.7377 52.7333 67.7209C53.0697 67.7212 53.4051 67.6837 53.7331 67.609V69.5395C53.0393 69.6504 52.3382 69.7089 51.6356 69.7143C49.5801 69.7143 48.9159 68.6512 48.9159 66.8396V60.6146H47.5176L47.8741 58.6002H48.9299V55.9004L51.6076 55.2429V58.6002H53.8659L53.5093 60.6146H51.6076V66.5878Z" fill="#858585"/>
<path d="M57.8021 73.1416H56.187C56.6038 71.572 56.8983 69.9725 57.0679 68.3574L57.1169 67.5601H59.1025L59.0186 68.3364C58.7807 69.976 58.373 71.5864 57.8021 73.1416Z" fill="#858585"/>
<path d="M69.7718 56.7678V69.4906H66.8563V56.7678H62.7173V54.3547H73.9038V56.7678H69.7718Z" fill="#858585"/>
<path d="M77.2733 60.5029L76.8049 58.7123C80.3916 57.2085 85.2787 57.0966 85.2787 61.8319V69.4418H82.6009V68.0429C82.1602 68.5332 81.621 68.9249 81.0186 69.1925C80.4162 69.46 79.7642 69.5974 79.1051 69.5956C78.7021 69.6144 78.2996 69.5476 77.9243 69.3997C77.5489 69.2517 77.209 69.026 76.9271 68.7373C76.6451 68.4486 76.4274 68.1035 76.2882 67.7246C76.1491 67.3458 76.0917 66.9417 76.1197 66.5391C76.1197 64.0211 78.5737 62.2935 82.6428 62.4683V61.8738C82.6498 59.2229 79.8532 59.5307 77.2733 60.5029ZM78.6017 66.2383C78.6017 67.1406 79.3009 67.5882 80.2377 67.5882C80.6851 67.586 81.1273 67.4925 81.5373 67.3133C81.9472 67.1341 82.3163 66.873 82.6219 66.5461V64.0211C79.8532 63.7343 78.6017 65.1752 78.6017 66.2383Z" fill="#858585"/>
<path d="M90.7184 58.3486L92.2915 60.7197L93.1934 62.3774L94.1513 60.6778L95.6964 58.3486H98.493L94.8714 63.7973L98.6049 69.5047H95.3958L93.8366 67.1406L92.9068 65.441L91.9769 67.1616L90.4737 69.4907H87.5093L91.2707 63.7833L87.5442 58.3486H90.7184Z" fill="#858585"/>
<path d="M106.596 60.5029L106.135 58.7123C109.714 57.2085 114.601 57.0966 114.601 61.8319V69.4418H111.924V68.0429C111.483 68.5339 110.944 68.9261 110.342 69.1937C109.739 69.4613 109.087 69.5983 108.428 69.5956C108.025 69.6144 107.622 69.5476 107.247 69.3997C106.872 69.2517 106.532 69.026 106.25 68.7373C105.968 68.4486 105.75 68.1035 105.611 67.7246C105.472 67.3458 105.414 66.9417 105.442 66.5391C105.442 64.0211 107.896 62.2935 111.966 62.4683V61.8738C111.952 59.2229 109.141 59.5307 106.596 60.5029ZM107.924 66.2383C107.924 67.1406 108.624 67.5882 109.56 67.5882C110.009 67.5858 110.452 67.4921 110.863 67.3129C111.274 67.1338 111.644 66.8729 111.952 66.5461V64.0211C109.218 63.7343 107.924 65.1752 107.924 66.2383Z" fill="#858585"/>
<path d="M117.482 69.4417V58.3486H120.153V59.3698C121.187 58.5578 122.467 58.1213 123.781 58.1318C125.991 58.1318 127.123 59.4117 127.123 61.7339V69.4277H124.446V62.6082C124.446 61.3912 123.893 60.7057 122.635 60.7057C121.721 60.7729 120.852 61.1279 120.153 61.7199V69.4138L117.482 69.4417Z" fill="#858585"/>
<path d="M133.975 69.6234C131.06 69.6234 129.689 67.1404 129.689 63.825C129.689 60.5097 131.193 58.0267 134.129 58.0267C134.67 58.0273 135.205 58.1394 135.7 58.356C136.196 58.5726 136.642 58.8891 137.01 59.2856V54.2637H139.659V69.4415H137.01V68.2944C136.62 68.7104 136.151 69.0427 135.629 69.2712C135.107 69.4997 134.545 69.6195 133.975 69.6234ZM134.947 60.1949C133.381 60.1949 132.472 61.5029 132.472 63.825C132.472 66.1472 133.381 67.4551 134.947 67.4551C135.7 67.4435 136.427 67.1773 137.01 66.6997V60.9503C136.421 60.4834 135.698 60.2185 134.947 60.1949Z" fill="#858585"/>
<path d="M154.167 69.7074C149.329 69.7074 147.336 66.5459 147.336 61.9226C147.336 57.2993 149.329 54.1519 154.167 54.1519C155.933 54.1661 157.676 54.5597 159.278 55.3059V57.5371C157.734 56.9821 156.119 56.6546 154.481 56.5649C151.685 56.5649 150.251 58.3835 150.251 61.9436C150.251 65.5038 151.713 67.2943 154.481 67.2943C156.118 67.2141 157.734 66.8936 159.278 66.3431V68.5813C157.673 69.3148 155.931 69.6987 154.167 69.7074Z" fill="#858585"/>
<path d="M171.75 58.3486V69.5397H169.072V68.4555C168.053 69.3014 166.768 69.7619 165.444 69.7565C163.214 69.7565 162.109 68.4556 162.109 66.1544V58.3486H164.787V65.2311C164.787 66.4482 165.339 67.1336 166.597 67.1336C167.507 67.0568 168.371 66.7028 169.072 66.1194V58.3486H171.75Z" fill="#858585"/>
<path d="M174.295 68.8402V66.8468C175.501 67.4144 176.809 67.7309 178.141 67.7771C179.798 67.7771 180.238 66.9797 180.238 66.4271C180.238 65.5459 179.176 65.2101 177.959 64.7695C176.386 64.2379 174.505 63.5315 174.505 61.3212C174.505 59.111 176.197 57.6492 179.336 57.6492C180.65 57.6495 181.946 57.9585 183.119 58.5514V60.5239C182.188 59.9647 181.128 59.6585 180.042 59.6356C178.295 59.6356 177.567 60.4329 177.567 61.0974C177.567 62.0277 178.763 62.3774 180.091 62.867C181.637 63.4196 183.363 64.147 183.363 66.1404C183.363 68.4625 181.392 69.7915 178.693 69.7915C177.177 69.7884 175.678 69.4642 174.295 68.8402Z" fill="#858585"/>
<path d="M188.866 66.5878C188.848 66.741 188.865 66.8962 188.916 67.0418C188.966 67.1875 189.049 67.3198 189.158 67.4288C189.267 67.5378 189.399 67.6207 189.545 67.6713C189.69 67.7219 189.846 67.7389 189.999 67.7209C190.333 67.7213 190.666 67.6838 190.991 67.609V69.5395C190.298 69.6506 189.596 69.709 188.894 69.7143C186.831 69.7143 186.174 68.6512 186.174 66.8396V60.6146H184.776L185.132 58.6002H186.195V55.9004L188.866 55.2429V58.6002H191.124L190.768 60.6146H188.866V66.5878Z" fill="#858585"/>
<path d="M192.914 63.8252C192.914 60.5518 194.55 58.0269 198.116 58.0269C201.681 58.0269 203.311 60.5518 203.311 63.8252C203.311 67.0986 201.674 69.6236 198.116 69.6236C194.557 69.6236 192.914 67.0986 192.914 63.8252ZM195.389 63.8252C195.389 65.9935 196.256 67.6931 198.116 67.6931C199.976 67.6931 200.787 65.9935 200.787 63.8252C200.787 61.657 199.969 59.9503 198.116 59.9503C196.263 59.9503 195.389 61.657 195.389 63.8252Z" fill="#858585"/>
<path d="M222.369 61.7198V69.4136H219.685V62.6081C219.685 61.3911 219.132 60.7056 217.867 60.7056C216.965 60.7812 216.111 61.1468 215.434 61.7478C215.475 62.0326 215.491 62.3204 215.483 62.6081V69.4416H212.826V62.6081C212.826 61.3911 212.274 60.7056 211.015 60.7056C210.128 60.7718 209.288 61.1282 208.624 61.7198V69.4136H205.953V58.3485H208.624V59.8173C209.06 59.2998 209.601 58.8807 210.21 58.5877C210.82 58.2947 211.485 58.1345 212.162 58.1177C213.665 58.1177 214.665 58.7122 215.126 59.9502C216.433 58.6912 217.629 58.1177 219.02 58.1177C221.265 58.1177 222.369 59.3977 222.369 61.7198Z" fill="#858585"/>
<path d="M224.914 68.8402V66.8468C226.122 67.4138 227.433 67.7303 228.766 67.7771C230.423 67.7771 230.864 66.9797 230.864 66.4272C230.864 65.5459 229.801 65.2101 228.585 64.7695C227.019 64.2379 225.138 63.5315 225.138 61.3212C225.138 59.111 226.816 57.6492 229.962 57.6492C231.274 57.6485 232.567 57.9576 233.737 58.5515V60.5239C232.809 59.965 231.751 59.6587 230.668 59.6356C228.92 59.6356 228.186 60.4329 228.186 61.0974C228.186 62.0277 229.382 62.3774 230.71 62.867C232.255 63.4196 233.982 64.147 233.982 66.1404C233.982 68.4625 232.017 69.7915 229.319 69.7915C227.8 69.7892 226.299 69.465 224.914 68.8402Z" fill="#858585"/>
<path d="M244.707 65.8394L243.54 69.4905H240.659L246.294 54.2427H248.685L254.146 69.4905H251.181L249.993 65.8394H244.707ZM245.239 63.6711H249.51L247.413 57.2992L245.239 63.6711Z" fill="#858585"/>
<path d="M265.962 58.3486V69.5397H263.284V68.4555C262.266 69.3004 260.985 69.7608 259.662 69.7565C257.425 69.7565 256.32 68.4556 256.32 66.1544V58.3486H258.998V65.2311C258.998 66.4482 259.55 67.1336 260.809 67.1336C261.718 67.0568 262.582 66.7028 263.284 66.1194V58.3486H265.962Z" fill="#858585"/>
<path d="M271.981 66.5878C271.962 66.7406 271.978 66.8957 272.028 67.0414C272.078 67.1871 272.16 67.3196 272.268 67.4288C272.377 67.538 272.509 67.621 272.654 67.6716C272.799 67.7223 272.954 67.7391 273.107 67.7209C273.441 67.7213 273.774 67.6838 274.1 67.609V69.5395C273.406 69.6506 272.705 69.709 272.002 69.7143C269.947 69.7143 269.283 68.6512 269.283 66.8396V60.6146H267.884L268.241 58.6002H269.325V55.9004L272.002 55.2429V58.6002H274.219L273.869 60.6146H271.981V66.5878Z" fill="#858585"/>
<path d="M285.887 61.7198V69.4137H283.21V62.6081C283.21 61.3701 282.636 60.7476 281.574 60.7266C280.608 60.7724 279.682 61.1197 278.924 61.7198V69.4137H276.246V54.3547H278.924V59.2508C279.884 58.4865 281.061 58.0457 282.287 57.9918C284.384 57.9848 285.887 59.2438 285.887 61.7198Z" fill="#858585"/>
<path d="M288.454 63.8252C288.454 60.5518 290.09 58.0269 293.655 58.0269C297.221 58.0269 298.85 60.5518 298.85 63.8252C298.85 67.0986 297.214 69.6236 293.655 69.6236C290.097 69.6236 288.454 67.0986 288.454 63.8252ZM290.929 63.8252C290.929 65.9935 291.796 67.6931 293.655 67.6931C295.515 67.6931 296.326 65.9935 296.326 63.8252C296.326 61.657 295.508 59.9503 293.655 59.9503C291.803 59.9503 290.929 61.657 290.929 63.8252Z" fill="#858585"/>
<path d="M301.486 69.4417V58.3486H304.157V60.4469C304.537 59.7864 305.09 59.2421 305.757 58.8725C306.423 58.5028 307.178 58.3217 307.939 58.3486V60.4469C306.436 60.265 304.513 61.4611 304.178 62.4823V69.4767L301.486 69.4417Z" fill="#858585"/>
<path d="M309.799 55.9494C309.799 55.6727 309.881 55.4023 310.034 55.1722C310.188 54.9422 310.407 54.7629 310.662 54.657C310.918 54.5511 311.199 54.5234 311.47 54.5774C311.741 54.6314 311.99 54.7646 312.186 54.9603C312.381 55.1559 312.515 55.4052 312.569 55.6765C312.623 55.9479 312.595 56.2291 312.489 56.4847C312.383 56.7404 312.204 56.9588 311.974 57.1125C311.744 57.2663 311.474 57.3483 311.197 57.3483C310.826 57.3483 310.471 57.2009 310.208 56.9386C309.946 56.6762 309.799 56.3204 309.799 55.9494ZM312.56 69.4416H309.876V58.6283H312.553L312.56 69.4416Z" fill="#858585"/>
<path d="M319.328 66.5878C319.309 66.7406 319.325 66.8957 319.375 67.0414C319.425 67.1871 319.507 67.3196 319.615 67.4288C319.724 67.538 319.856 67.621 320.001 67.6716C320.146 67.7223 320.301 67.7391 320.454 67.7209C320.79 67.7208 321.126 67.6833 321.454 67.609V69.5395C320.76 69.6504 320.059 69.7089 319.356 69.7143C317.301 69.7143 316.637 68.6512 316.637 66.8396V60.6146H315.238L315.588 58.6002H316.651V55.9004L319.328 55.2429V58.6002H321.587L321.23 60.6146H319.328V66.5878Z" fill="#858585"/>
<path d="M334.06 58.3486L328.683 73.4845H326.138L327.271 70.2741L322.845 58.3836H325.852L328.487 67.0147L331.179 58.3486H334.06Z" fill="#858585"/>
<path d="M34.6669 69.4347H31.5277L27.9969 64.3148V69.4347H25.3262V54.3547H27.9969V62.9439L31.3319 58.0828H34.3313L30.3391 63.4614L34.6669 69.4347Z" fill="#858585"/>
<path d="M392.768 0.447046L354.337 26.6633L354.834 27.3915L393.264 1.17517L392.768 0.447046Z" fill="url(#paint0_linear_371_175)"/>
<path d="M385.183 0.921069L354.385 21.9226L354.881 22.6508L385.679 1.64928L385.183 0.921069Z" fill="url(#paint1_linear_371_175)"/>
<path d="M412.546 34.3087L412.54 34.3017L406.31 38.5543L406.317 38.5613L374.268 60.4188L374.932 61.391L370.576 64.4336L370.919 64.9232L361.648 71.393L362.151 72.1205L372.38 64.9722L375.757 62.6081L408.31 40.4008L407.638 39.4216L413.372 35.5117L413.043 35.0361L433.955 20.7745L433.458 20.0471L412.546 34.3087Z" fill="url(#paint2_linear_371_175)"/>
<path d="M414.316 37.841V37.834L407.646 42.3804L407.653 42.3874L376.638 63.5455L377.295 64.5107L372.632 67.7631L372.961 68.2317L363.872 74.5966L364.382 75.3171L373.464 68.9591L373.471 68.9661L378.12 65.7207L378.127 65.7277L409.247 44.4997L408.576 43.5275L415.141 39.0511L414.812 38.5685L433.927 25.5309L433.431 24.8035L414.316 37.841Z" fill="url(#paint3_linear_371_175)"/>
<path d="M416.022 41.4222L416.015 41.4152L410.498 45.1782V45.1852L378.84 66.7769L379.498 67.7421L375.226 70.7287L375.554 71.1973L366.375 77.6322L366.878 78.3526L376.058 71.9178L376.065 71.9318L380.323 68.9591L380.33 68.9661L412.001 47.3604L411.337 46.3882L416.84 42.6322L416.518 42.1496L433.899 30.2941L433.403 29.5667L416.022 41.4222Z" fill="url(#paint4_linear_371_175)"/>
<path d="M418.622 44.3878V44.3808L413.148 48.1088L413.155 48.1228L381.141 69.8614L381.819 70.8546L376.359 74.6666L376.694 75.1492L369.115 80.4509L369.626 81.1714L378.281 75.1212V75.1142L384.098 71.0505L414.924 50.1162L414.26 49.13L419.447 45.5908L419.119 45.1152L433.871 35.0573L433.375 34.3298L418.622 44.3878Z" fill="url(#paint5_linear_371_175)"/>
<path d="M421.839 46.9267L421.832 46.9127L415.847 50.9975V51.0045L388.076 69.9523L388.734 70.9105L382.169 75.5059L382.504 75.9885L372.248 83.1578L372.751 83.8782L383.916 76.0724L389.559 72.1276L389.566 72.1346L417.504 53.0748L416.84 52.0956L422.657 48.1298L422.335 47.6542L433.843 39.7994L433.347 39.072L421.839 46.9267Z" fill="url(#paint6_linear_371_175)"/>
<path d="M428.956 47.1574L428.795 46.9126L421.769 51.7037L394.886 70.0431L395.557 71.0223L388.314 76.0862L388.65 76.5688L375.939 85.4587L376.442 86.1792L390.048 76.6668L397.046 71.7707L423.258 53.893L422.594 52.9208L429.62 48.1296L429.208 47.5211L429.459 47.8848L433.822 44.8003L433.312 44.0798L428.956 47.1574Z" fill="url(#paint7_linear_371_175)"/>
<path d="M429.075 51.473V51.459L425.117 54.1588H425.11L409.302 64.9442L409.974 65.9234L403.283 70.6027L403.618 71.0853L379.504 87.9488L380.008 88.6692L405.072 71.1412L410.938 67.0425L410.931 67.0355L426.6 56.3481L425.942 55.3758L429.9 52.676L429.571 52.2004L433.717 49.3746L433.22 48.6472L429.075 51.473Z" fill="url(#paint8_linear_371_175)"/>
<path d="M429.865 55.8444L429.781 55.7255L426.054 58.2645H426.047L413.498 66.8187L414.162 67.7979L408.324 71.8826L408.659 72.3722L383.245 90.138L383.748 90.8584L410.463 72.1834V72.1764L415.595 68.5952L427.537 60.4467L426.879 59.4815L430.606 56.9356L430.193 56.334L433.039 54.3896L432.71 53.907L429.865 55.8444Z" fill="url(#paint9_linear_371_175)"/>
<path d="M357.88 32.2314L361.453 29.7344L374.96 20.5228L374.296 19.5506L380.232 15.5078L379.91 15.0322L399.906 1.38611L399.41 0.658691L379.414 14.2978L379.407 14.2908L373.471 18.3405V18.3336L359.166 28.0907L359.838 29.07L356.44 31.4411L356.782 31.9237L354.3 33.6653L354.804 34.3857L357.88 32.2314Z" fill="url(#paint10_linear_371_175)"/>
<path d="M360.124 35.4419V35.4349L363.648 32.9728L380.344 21.579L379.686 20.6137L384.294 17.4662L383.986 17.0186L405.751 2.03659L405.248 1.31616L383.49 16.2912L383.469 16.2562L378.861 19.3967L361.096 31.511L361.767 32.4972L358.712 34.6305L359.047 35.1131L354.265 38.4565L354.776 39.1769L360.124 35.4419Z" fill="url(#paint11_linear_371_175)"/>
<path d="M360.914 39.6525L365.598 36.3791L383.776 23.978L383.098 22.9848L387.985 19.6485L387.677 19.1938L411.148 3.03674L410.645 2.30933L387.181 18.4664L387.16 18.4384L382.063 21.9146L382.077 21.9356L363.025 34.9312L363.696 35.9174L359.578 38.7991L359.914 39.2817L354.237 43.2476L354.747 43.968L360.914 39.6525Z" fill="url(#paint12_linear_371_175)"/>
<path d="M362.788 43.1218L367.892 39.5546L387.209 26.3772L386.545 25.398L391.698 21.8798L391.355 21.3762L416.49 4.42175L416 3.69434L390.523 20.8726L390.537 20.8936L385.699 24.2019L364.948 38.3586L365.626 39.3448L360.886 42.6602L361.222 43.1428L354.272 47.9969L354.775 48.7243L362.788 43.1218Z" fill="url(#paint13_linear_371_175)"/>
<path d="M365.074 46.2622L368.367 43.961V43.968L390.635 28.7692L389.971 27.797L395.732 23.8661L395.41 23.3905L420.685 6.14929L420.188 5.42188L394.914 22.6631L394.907 22.6561L389.111 26.6079V26.6149L366.878 41.7788L367.535 42.751L363.284 45.7236L363.626 46.2132L354.677 52.4523L355.188 53.1727L365.081 46.2692L365.074 46.2622Z" fill="url(#paint14_linear_371_175)"/>
<path d="M367.29 49.4937L371.045 46.8708L394.068 31.1684L393.404 30.1962L399.78 25.8456L399.452 25.37L425.418 7.6532L424.922 6.92578L398.955 24.6426L398.948 24.6286L392.194 29.2379V29.2449L368.801 45.1992L369.472 46.1854L365.459 48.9901L365.794 49.4727L355.468 56.691L355.971 57.4114L367.297 49.5007L367.29 49.4937Z" fill="url(#paint15_linear_371_175)"/>
<path d="M367.934 53.8302L373.317 50.0672L400.493 31.6369L399.822 30.6507L405.835 26.552L405.506 26.0764L429.62 9.62553L429.124 8.89111L405.01 25.342L405.003 25.335L398.808 29.5666L398.815 29.5806L370.591 48.7173L371.262 49.7105L366.228 53.2286L366.57 53.7113L356.586 60.6847L357.09 61.4121L367.934 53.8372V53.8302Z" fill="url(#paint16_linear_371_175)"/>
<path d="M368.598 58.0968L373.366 54.7675L402.87 34.6376L402.213 33.6723L408.254 29.5596L407.925 29.077L433.437 11.6749L432.941 10.9475L407.429 28.3496L407.422 28.3426L401.388 32.4623L401.381 32.4553L371.22 53.0328L371.884 54.0121L366.78 57.5792L367.116 58.0618L357.999 64.4337L358.502 65.1611L368.605 58.0968H368.598Z" fill="url(#paint17_linear_371_175)"/>
<path d="M369.535 62.1744L373.576 59.3557H373.583L405.073 37.8759L404.415 36.9037L410.176 32.9728L409.848 32.4972L433.983 16.0324L433.486 15.3049L409.351 31.7698L409.344 31.7558L403.583 35.6866L372.086 57.1734L372.751 58.1387L367.989 61.468L368.346 61.9716L359.669 67.9798L360.173 68.7002L369.556 62.2024L369.535 62.1744Z" fill="url(#paint18_linear_371_175)"/>
<path d="M430.469 61.8961L386.902 92.2671L387.406 92.9902L430.973 62.6191L430.469 61.8961Z" fill="url(#paint19_linear_371_175)"/>
<path d="M427.076 70.0649L390.379 95.5845L390.881 96.3071L427.578 70.7876L427.076 70.0649Z" fill="url(#paint20_linear_371_175)"/>
<path d="M419.493 80.145L403.371 91.356L403.873 92.0786L419.995 80.8677L419.493 80.145Z" fill="url(#paint21_linear_371_175)"/>
<path d="M376.427 1.00004L355 15.6611L355.497 16.3886L376.925 1.72747L376.427 1.00004Z" fill="url(#paint22_linear_371_175)"/>
<path d="M363.918 4.75421L355.031 10.8967L355.532 11.6218L364.419 5.47928L363.918 4.75421Z" fill="url(#paint23_linear_371_175)"/>
<defs>
<linearGradient id="paint0_linear_371_175" x1="409.123" y1="-17.2988" x2="331.692" y2="51.0822" gradientUnits="userSpaceOnUse">
<stop stop-color="#62B34F"/>
<stop offset="0.46" stop-color="#51BAB4"/>
<stop offset="1" stop-color="#0094D3"/>
</linearGradient>
<linearGradient id="paint1_linear_371_175" x1="406.405" y1="-20.3933" x2="328.974" y2="47.9877" gradientUnits="userSpaceOnUse">
<stop stop-color="#62B34F"/>
<stop offset="0.46" stop-color="#51BAB4"/>
<stop offset="1" stop-color="#0094D3"/>
</linearGradient>
<linearGradient id="paint2_linear_371_175" x1="435.591" y1="12.682" x2="358.166" y2="81.063" gradientUnits="userSpaceOnUse">
<stop stop-color="#62B34F"/>
<stop offset="0.46" stop-color="#51BAB4"/>
<stop offset="1" stop-color="#0094D3"/>
</linearGradient>
<linearGradient id="paint3_linear_371_175" x1="438.052" y1="15.4589" x2="360.621" y2="83.8469" gradientUnits="userSpaceOnUse">
<stop stop-color="#62B34F"/>
<stop offset="0.46" stop-color="#51BAB4"/>
<stop offset="1" stop-color="#0094D3"/>
</linearGradient>
<linearGradient id="paint4_linear_371_175" x1="440.527" y1="18.2637" x2="363.096" y2="86.6447" gradientUnits="userSpaceOnUse">
<stop stop-color="#62B34F"/>
<stop offset="0.46" stop-color="#51BAB4"/>
<stop offset="1" stop-color="#0094D3"/>
</linearGradient>
<linearGradient id="paint5_linear_371_175" x1="442.995" y1="21.0684" x2="365.571" y2="89.4494" gradientUnits="userSpaceOnUse">
<stop stop-color="#62B34F"/>
<stop offset="0.46" stop-color="#51BAB4"/>
<stop offset="1" stop-color="#0094D3"/>
</linearGradient>
<linearGradient id="paint6_linear_371_175" x1="445.526" y1="23.9291" x2="368.102" y2="92.3101" gradientUnits="userSpaceOnUse">
<stop stop-color="#62B34F"/>
<stop offset="0.46" stop-color="#51BAB4"/>
<stop offset="1" stop-color="#0094D3"/>
</linearGradient>
<linearGradient id="paint7_linear_371_175" x1="448.141" y1="26.8876" x2="370.717" y2="95.2686" gradientUnits="userSpaceOnUse">
<stop stop-color="#62B34F"/>
<stop offset="0.46" stop-color="#51BAB4"/>
<stop offset="1" stop-color="#0094D3"/>
</linearGradient>
<linearGradient id="paint8_linear_371_175" x1="450.818" y1="29.9232" x2="373.394" y2="98.3041" gradientUnits="userSpaceOnUse">
<stop stop-color="#62B34F"/>
<stop offset="0.46" stop-color="#51BAB4"/>
<stop offset="1" stop-color="#0094D3"/>
</linearGradient>
<linearGradient id="paint9_linear_371_175" x1="453.405" y1="32.8468" x2="375.981" y2="101.235" gradientUnits="userSpaceOnUse">
<stop stop-color="#62B34F"/>
<stop offset="0.46" stop-color="#51BAB4"/>
<stop offset="1" stop-color="#0094D3"/>
</linearGradient>
<linearGradient id="paint10_linear_371_175" x1="412.037" y1="-13.9876" x2="334.612" y2="54.3934" gradientUnits="userSpaceOnUse">
<stop stop-color="#62B34F"/>
<stop offset="0.46" stop-color="#51BAB4"/>
<stop offset="1" stop-color="#0094D3"/>
</linearGradient>
<linearGradient id="paint11_linear_371_175" x1="414.749" y1="-10.9171" x2="337.325" y2="57.4639" gradientUnits="userSpaceOnUse">
<stop stop-color="#62B34F"/>
<stop offset="0.46" stop-color="#51BAB4"/>
<stop offset="1" stop-color="#0094D3"/>
</linearGradient>
<linearGradient id="paint12_linear_371_175" x1="417.454" y1="-7.85354" x2="340.03" y2="60.5274" gradientUnits="userSpaceOnUse">
<stop stop-color="#62B34F"/>
<stop offset="0.46" stop-color="#51BAB4"/>
<stop offset="1" stop-color="#0094D3"/>
</linearGradient>
<linearGradient id="paint13_linear_371_175" x1="420.237" y1="-4.69895" x2="342.813" y2="63.682" gradientUnits="userSpaceOnUse">
<stop stop-color="#62B34F"/>
<stop offset="0.46" stop-color="#51BAB4"/>
<stop offset="1" stop-color="#0094D3"/>
</linearGradient>
<linearGradient id="paint14_linear_371_175" x1="422.831" y1="-1.76837" x2="345.407" y2="66.6126" gradientUnits="userSpaceOnUse">
<stop stop-color="#62B34F"/>
<stop offset="0.46" stop-color="#51BAB4"/>
<stop offset="1" stop-color="#0094D3"/>
</linearGradient>
<linearGradient id="paint15_linear_371_175" x1="425.467" y1="1.21835" x2="348.043" y2="69.5993" gradientUnits="userSpaceOnUse">
<stop stop-color="#62B34F"/>
<stop offset="0.46" stop-color="#51BAB4"/>
<stop offset="1" stop-color="#0094D3"/>
</linearGradient>
<linearGradient id="paint16_linear_371_175" x1="428.11" y1="4.21186" x2="350.686" y2="72.5929" gradientUnits="userSpaceOnUse">
<stop stop-color="#62B34F"/>
<stop offset="0.46" stop-color="#51BAB4"/>
<stop offset="1" stop-color="#0094D3"/>
</linearGradient>
<linearGradient id="paint17_linear_371_175" x1="430.697" y1="7.13556" x2="353.273" y2="75.5165" gradientUnits="userSpaceOnUse">
<stop stop-color="#62B34F"/>
<stop offset="0.46" stop-color="#51BAB4"/>
<stop offset="1" stop-color="#0094D3"/>
</linearGradient>
<linearGradient id="paint18_linear_371_175" x1="433.144" y1="9.90525" x2="355.713" y2="78.2863" gradientUnits="userSpaceOnUse">
<stop stop-color="#62B34F"/>
<stop offset="0.46" stop-color="#51BAB4"/>
<stop offset="1" stop-color="#0094D3"/>
</linearGradient>
<linearGradient id="paint19_linear_371_175" x1="455.46" y1="35.2491" x2="378.219" y2="103.627" gradientUnits="userSpaceOnUse">
<stop stop-color="#62B34F"/>
<stop offset="0.46" stop-color="#51BAB4"/>
<stop offset="1" stop-color="#0094D3"/>
</linearGradient>
<linearGradient id="paint20_linear_371_175" x1="458.31" y1="39.7545" x2="380.852" y2="107.886" gradientUnits="userSpaceOnUse">
<stop stop-color="#62B34F"/>
<stop offset="0.46" stop-color="#51BAB4"/>
<stop offset="1" stop-color="#0094D3"/>
</linearGradient>
<linearGradient id="paint21_linear_371_175" x1="460.933" y1="42.7448" x2="383.475" y2="110.877" gradientUnits="userSpaceOnUse">
<stop stop-color="#62B34F"/>
<stop offset="0.46" stop-color="#51BAB4"/>
<stop offset="1" stop-color="#0094D3"/>
</linearGradient>
<linearGradient id="paint22_linear_371_175" x1="404.153" y1="-25.0703" x2="326.729" y2="43.3106" gradientUnits="userSpaceOnUse">
<stop stop-color="#62B34F"/>
<stop offset="0.46" stop-color="#51BAB4"/>
<stop offset="1" stop-color="#0094D3"/>
</linearGradient>
<linearGradient id="paint23_linear_371_175" x1="401.168" y1="-28.4542" x2="323.744" y2="39.9266" gradientUnits="userSpaceOnUse">
<stop stop-color="#62B34F"/>
<stop offset="0.46" stop-color="#51BAB4"/>
<stop offset="1" stop-color="#0094D3"/>
</linearGradient>
</defs>
</svg>
